<svg width="143" height="47" viewBox="0 0 143 47" fill="none" xmlns="http://www.w3.org/2000/svg">
<path d="M71.052 37C70.38 37 69.84 36.724 69.432 36.172L61.116 25.228L64.392 21.88L72.996 33.256C73.332 33.712 73.5 34.204 73.5 34.732C73.5 35.404 73.248 35.956 72.744 36.388C72.24 36.796 71.676 37 71.052 37ZM71.484 11.62C72.06 11.62 72.528 11.86 72.888 12.34C73.272 12.796 73.464 13.264 73.464 13.744C73.464 14.248 73.248 14.716 72.816 15.148L57.732 29.584L57.552 24.436L69.72 12.448C70.272 11.896 70.86 11.62 71.484 11.62ZM55.932 37C55.26 37 54.72 36.796 54.312 36.388C53.904 35.956 53.7 35.428 53.7 34.804V13.996C53.7 13.372 53.916 12.856 54.348 12.448C54.78 12.016 55.332 11.8 56.004 11.8C56.676 11.8 57.204 12.016 57.588 12.448C57.996 12.856 58.2 13.372 58.2 13.996V34.804C58.2 35.428 57.996 35.956 57.588 36.388C57.18 36.796 56.628 37 55.932 37ZM80.2778 34.804C80.2778 35.428 80.0738 35.956 79.6658 36.388C79.2578 36.796 78.7418 37 78.1178 37C77.4938 37 76.9778 36.796 76.5698 36.388C76.1618 35.956 75.9578 35.428 75.9578 34.804V19.936C75.9578 19.312 76.1618 18.796 76.5698 18.388C76.9778 17.956 77.4938 17.74 78.1178 17.74C78.7418 17.74 79.2578 17.956 79.6658 18.388C80.0738 18.796 80.2778 19.312 80.2778 19.936V34.804ZM78.0818 15.4C77.2658 15.4 76.6898 15.268 76.3538 15.004C76.0178 14.74 75.8498 14.272 75.8498 13.6V12.916C75.8498 12.22 76.0298 11.752 76.3898 11.512C76.7738 11.248 77.3498 11.116 78.1178 11.116C78.9578 11.116 79.5458 11.248 79.8818 11.512C80.2178 11.776 80.3858 12.244 80.3858 12.916V13.6C80.3858 14.296 80.2058 14.776 79.8458 15.04C79.4858 15.28 78.8978 15.4 78.0818 15.4ZM99.7657 10.36C100.39 10.36 100.906 10.564 101.314 10.972C101.722 11.38 101.926 11.908 101.926 12.556V34.804C101.926 35.428 101.722 35.956 101.314 36.388C100.906 36.796 100.39 37 99.7657 37C99.1417 37 98.6257 36.796 98.2177 36.388C97.8097 35.956 97.6057 35.428 97.6057 34.804V33.04L98.3977 33.364C98.3977 33.676 98.2297 34.06 97.8937 34.516C97.5577 34.948 97.1017 35.38 96.5257 35.812C95.9497 36.244 95.2657 36.616 94.4737 36.928C93.7057 37.216 92.8657 37.36 91.9537 37.36C90.2977 37.36 88.7977 36.94 87.4537 36.1C86.1097 35.236 85.0417 34.06 84.2497 32.572C83.4817 31.06 83.0977 29.332 83.0977 27.388C83.0977 25.42 83.4817 23.692 84.2497 22.204C85.0417 20.692 86.0977 19.516 87.4177 18.676C88.7377 17.812 90.2017 17.38 91.8097 17.38C92.8417 17.38 93.7897 17.536 94.6537 17.848C95.5177 18.16 96.2617 18.556 96.8857 19.036C97.5337 19.516 98.0257 20.008 98.3617 20.512C98.7217 20.992 98.9017 21.4 98.9017 21.736L97.6057 22.204V12.556C97.6057 11.932 97.8097 11.416 98.2177 11.008C98.6257 10.576 99.1417 10.36 99.7657 10.36ZM92.4937 33.4C93.5497 33.4 94.4737 33.136 95.2657 32.608C96.0577 32.08 96.6697 31.36 97.1017 30.448C97.5577 29.536 97.7857 28.516 97.7857 27.388C97.7857 26.236 97.5577 25.204 97.1017 24.292C96.6697 23.38 96.0577 22.66 95.2657 22.132C94.4737 21.604 93.5497 21.34 92.4937 21.34C91.4617 21.34 90.5497 21.604 89.7577 22.132C88.9657 22.66 88.3417 23.38 87.8857 24.292C87.4537 25.204 87.2377 26.236 87.2377 27.388C87.2377 28.516 87.4537 29.536 87.8857 30.448C88.3417 31.36 88.9657 32.08 89.7577 32.608C90.5497 33.136 91.4617 33.4 92.4937 33.4ZM118.159 33.04C118.735 33.04 119.215 33.232 119.599 33.616C119.983 33.976 120.175 34.444 120.175 35.02C120.175 35.572 119.983 36.04 119.599 36.424C119.215 36.808 118.735 37 118.159 37H106.567C105.967 37 105.487 36.784 105.127 36.352C104.767 35.92 104.599 35.488 104.623 35.056C104.647 34.696 104.695 34.384 104.767 34.12C104.839 33.832 105.019 33.508 105.307 33.148L114.271 21.556L114.199 22.06H106.891C106.315 22.06 105.835 21.868 105.451 21.484C105.067 21.1 104.875 20.62 104.875 20.044C104.875 19.492 105.067 19.036 105.451 18.676C105.835 18.292 106.315 18.1 106.891 18.1H117.979C118.531 18.1 118.999 18.304 119.383 18.712C119.767 19.12 119.935 19.636 119.887 20.26C119.863 20.5 119.815 20.74 119.743 20.98C119.695 21.22 119.539 21.508 119.275 21.844L110.455 33.256V33.04H118.159ZM138.369 17.38C138.993 17.38 139.509 17.584 139.917 17.992C140.325 18.4 140.529 18.928 140.529 19.576V34.804C140.529 35.428 140.325 35.956 139.917 36.388C139.509 36.796 138.993 37 138.369 37C137.745 37 137.229 36.796 136.821 36.388C136.413 35.956 136.209 35.428 136.209 34.804V33.04L137.001 33.364C137.001 33.676 136.833 34.06 136.497 34.516C136.161 34.948 135.705 35.38 135.129 35.812C134.553 36.244 133.869 36.616 133.077 36.928C132.309 37.216 131.469 37.36 130.557 37.36C128.901 37.36 127.401 36.94 126.057 36.1C124.713 35.236 123.645 34.06 122.853 32.572C122.085 31.06 121.701 29.332 121.701 27.388C121.701 25.42 122.085 23.692 122.853 22.204C123.645 20.692 124.701 19.516 126.021 18.676C127.341 17.812 128.805 17.38 130.413 17.38C131.445 17.38 132.393 17.536 133.257 17.848C134.121 18.16 134.865 18.556 135.489 19.036C136.137 19.516 136.629 20.008 136.965 20.512C137.325 20.992 137.505 21.4 137.505 21.736L136.209 22.204V19.576C136.209 18.952 136.413 18.436 136.821 18.028C137.229 17.596 137.745 17.38 138.369 17.38ZM131.097 33.4C132.153 33.4 133.077 33.136 133.869 32.608C134.661 32.08 135.273 31.36 135.705 30.448C136.161 29.536 136.389 28.516 136.389 27.388C136.389 26.236 136.161 25.204 135.705 24.292C135.273 23.38 134.661 22.66 133.869 22.132C133.077 21.604 132.153 21.34 131.097 21.34C130.065 21.34 129.153 21.604 128.361 22.132C127.569 22.66 126.945 23.38 126.489 24.292C126.057 25.204 125.841 26.236 125.841 27.388C125.841 28.516 126.057 29.536 126.489 30.448C126.945 31.36 127.569 32.08 128.361 32.608C129.153 33.136 130.065 33.4 131.097 33.4Z" fill="#070713"/>
<g clip-path="url(#clip0_71_946)">
<path fill-rule="evenodd" clip-rule="evenodd" d="M18.0576 37.351V33.1825V26.6742V20.2368C18.0576 18.1422 19.8264 16.4346 21.9893 16.4346C24.1552 16.4346 25.9393 18.1451 25.9393 20.2368V26.6742V33.1825V37.351V41.4871C24.6593 41.7825 23.3426 41.942 21.9893 41.942C20.6543 41.942 19.3376 41.7854 18.0576 41.4871V37.351Z" fill="#6754E9"/>
<path fill-rule="evenodd" clip-rule="evenodd" d="M8.67596 35.5725V33.1825V26.6742V20.2368C8.67596 18.1422 10.4448 16.4346 12.6076 16.4346C14.7736 16.4346 16.5393 18.1451 16.5393 20.2368V26.6742V33.1825V37.5431V41.0498C14.1595 40.264 11.9753 38.9552 10.1362 37.1767C9.61688 36.6715 9.12809 36.1309 8.67596 35.5725Z" fill="#8DBA12"/>
<path fill-rule="evenodd" clip-rule="evenodd" d="M27.4393 37.5431V33.1825V26.6742V20.2368C27.4393 18.1422 29.2264 16.4346 31.3893 16.4346C33.5552 16.4346 35.321 18.1451 35.321 20.2368V26.6742V33.1825V35.5725C34.8688 36.1309 34.3831 36.6715 33.8424 37.1767C32.0216 38.9552 29.8374 40.264 27.4393 41.0498V37.5431Z" fill="#F15F25"/>
<path fill-rule="evenodd" clip-rule="evenodd" d="M10.2462 14.6211L17.6972 5.35645C18.9955 5.93253 20.4588 6.26342 21.9893 6.26342C23.5412 6.26342 24.9831 5.93253 26.2998 5.35645L33.7508 14.6211C33.0298 14.3257 32.2172 14.1662 31.3863 14.1662C29.5105 14.1662 27.8334 14.952 26.697 16.2076C25.5422 14.952 23.865 14.1662 21.9893 14.1662C20.1319 14.1662 18.4548 14.952 17.3 16.2076C16.1636 14.952 14.4864 14.1662 12.6107 14.1662C11.7798 14.1662 10.9672 14.3228 10.2462 14.6211Z" fill="#FECC8F"/>
<path fill-rule="evenodd" clip-rule="evenodd" d="M18.3112 4.58803L21.9923 0L25.6918 4.58803C24.5554 5.04299 23.3121 5.30297 21.9923 5.30297C20.6909 5.30297 19.4476 5.04299 18.3112 4.58803Z" fill="#6C6D70"/>
<path d="M28.1419 5.28516C31.7498 6.29848 34.9788 8.18037 37.5602 10.6768C41.5469 14.5321 44 19.8528 44 25.7142C44 31.5932 41.5469 36.9139 37.5602 40.7693C33.5736 44.6246 28.0717 46.997 21.9924 46.997C15.9314 46.997 10.4295 44.6246 6.44282 40.7693C2.4531 36.9169 0 31.5932 0 25.7142C0 19.8528 2.4531 14.5321 6.43977 10.6768C9.02118 8.18333 12.2502 6.29848 15.8581 5.28516L10.1759 12.3341C9.81546 12.6296 9.4733 12.9457 9.1281 13.2765C5.82573 16.4524 3.7881 20.8661 3.7881 25.7142C3.7881 30.5828 5.82573 34.9789 9.1281 38.1695C12.4121 41.3631 16.9762 43.3336 21.9893 43.3336C27.0238 43.3336 31.5695 41.3631 34.8688 38.1695C38.1712 34.9759 40.2088 30.5799 40.2088 25.7142C40.2088 20.8632 38.1712 16.4495 34.8688 13.2765C34.5267 12.9457 34.1845 12.6325 33.821 12.3341L28.1419 5.28516Z" fill="#6754E9"/>
</g>
<defs>
<clipPath id="clip0_71_946">
<rect width="44" height="47" fill="white"/>
</clipPath>
</defs>
</svg>
