<svg width="31" height="33" viewBox="0 0 31 33" fill="none" xmlns="http://www.w3.org/2000/svg">
<path d="M27.0382 13.6411H26.9565V11.6398C26.9565 5.21134 21.7452 0 15.3166 0C8.88804 0 3.67677 5.21134 3.67677 11.6398V13.6411H3.1867C1.38965 13.6411 0.00106181 15.2339 0.00106181 17.0718V22.177C-0.0442005 23.9583 1.36323 25.4391 3.14457 25.4843C3.15864 25.4847 3.17263 25.485 3.1867 25.4851H6.20896C6.63704 25.465 6.96779 25.1016 6.94762 24.6735C6.94692 24.6581 6.94574 24.6427 6.9441 24.6274V14.6212C6.9441 14.1312 6.65822 13.641 6.20896 13.641H5.31044V11.6398C5.31044 6.11354 9.79039 1.63359 15.3166 1.63359C20.8428 1.63359 25.3228 6.11354 25.3228 11.6398V13.641H24.4243C23.975 13.641 23.6891 14.1311 23.6891 14.6212V24.6274C23.6436 25.0535 23.952 25.4359 24.3782 25.4815C24.3935 25.4832 24.4089 25.4843 24.4243 25.485H25.3636L25.2819 25.6075C24.0564 27.2363 22.1333 28.1902 20.095 28.1805C19.6488 25.9925 17.5133 24.5805 15.3253 25.0268C13.4542 25.4084 12.1052 27.047 12.0901 28.9566C12.1125 31.1962 13.9345 33 16.1743 32.9998C17.283 32.9819 18.3398 32.5269 19.1148 31.7337C19.6377 31.1983 19.9804 30.5129 20.095 29.7733C22.6476 29.783 25.0547 28.587 26.5888 26.5469L27.3648 25.4033C29.121 25.2808 30.2237 24.1781 30.2237 22.5852V17.48C30.2238 15.724 28.9169 13.6411 27.0382 13.6411ZM5.31044 23.8515H3.1867C2.30725 23.83 1.61167 23.0998 1.63309 22.2204C1.63348 22.2059 1.63402 22.1914 1.63473 22.1769V17.0717C1.63473 16.1324 2.28818 15.2747 3.1867 15.2747H5.31044V23.8515ZM17.9305 30.5903C17.4779 31.0811 16.8419 31.3621 16.1743 31.3663C14.8455 31.3452 13.7672 30.2849 13.7238 28.9566C13.7233 27.6258 14.8017 26.5466 16.1325 26.546C17.4633 26.5455 18.5426 27.6239 18.5431 28.9547C18.5431 28.9553 18.5431 28.956 18.5431 28.9566C18.5771 29.563 18.3548 30.1558 17.9305 30.5903ZM28.5901 22.5854C28.5901 23.6881 27.5282 23.8515 27.0382 23.8515H25.3228V15.2747H27.0382C27.9367 15.2747 28.5901 16.5408 28.5901 17.4802V22.5854Z" fill="#FEB81B"/>
</svg>
