<svg width="50" height="50" viewBox="0 0 50 50" fill="none" xmlns="http://www.w3.org/2000/svg">
<path d="M34.6987 38.4565L31.7526 35.2995V31.6212C33.908 30.0951 35.5275 27.8597 36.2679 25.2579H36.5662V28.0717C36.5662 28.6111 37.0035 29.0483 37.5427 29.0483C38.082 29.0483 38.5192 28.6111 38.5192 28.0717V25.1332C40.1862 24.6991 41.4203 23.1813 41.4203 21.3804C41.4203 20.031 40.7271 18.841 39.6784 18.1462C39.6787 18.1133 39.679 15.3911 39.679 15.3911C39.679 10.5201 36.1964 6.44767 31.5904 5.5315C31.3377 4.08928 30.6189 2.76814 29.5291 1.76565C28.2914 0.627024 26.6828 0 25 0C23.3172 0 21.7087 0.627024 20.4709 1.76574C19.3811 2.76824 18.6623 4.08938 18.4095 5.5316C13.8036 6.44777 10.321 10.5202 10.321 15.3912C10.321 15.3912 10.3213 18.1134 10.3216 18.1463C9.27294 18.8411 8.57971 20.0311 8.57971 21.3805C8.57971 23.1814 9.81383 24.6993 11.4808 25.1333V28.0718C11.4808 28.6112 11.918 29.0484 12.4573 29.0484C12.9965 29.0484 13.4338 28.6112 13.4338 28.0718V25.258H13.7321C14.4724 27.8598 16.0919 30.0951 18.2474 31.6212V35.2995L15.3013 38.4565C10.5516 38.6709 6.75342 42.6017 6.75342 47.4034V49.0213C6.75342 49.5607 7.1907 49.9979 7.72994 49.9979H20.6057C21.1449 49.9979 21.5822 49.5607 21.5822 49.0213C21.5822 48.482 21.1449 48.0448 20.6057 48.0448H8.70646V47.4033C8.70646 43.5834 11.7809 40.47 15.5852 40.4029L18.4244 45.6393C18.5827 45.9311 18.8784 46.1226 19.2095 46.1475C19.234 46.1494 19.2585 46.1503 19.283 46.1503C19.5875 46.1503 19.8765 46.0078 20.0619 45.7626C20.7457 44.8579 22.9658 42.5103 24.9999 42.5103C27.0236 42.5103 29.2512 44.8587 29.938 45.7626C30.1233 46.0078 30.4123 46.1503 30.7169 46.1503C30.7414 46.1503 30.7659 46.1494 30.7905 46.1475C31.1215 46.1226 31.4172 45.9311 31.5755 45.6393L34.4147 40.4029C38.219 40.47 41.2933 43.5834 41.2933 47.4033V48.0448H29.3943C28.8551 48.0448 28.4178 48.482 28.4178 49.0213C28.4178 49.5607 28.8551 49.9979 29.3943 49.9979H42.2701C42.8093 49.9979 43.2466 49.5607 43.2466 49.0213V47.4033C43.2465 42.6017 39.4483 38.6709 34.6987 38.4565ZM37.5427 23.305H36.646C36.6896 22.8946 36.7126 22.4781 36.7126 22.0565V19.456H37.5427C38.6039 19.456 39.4673 20.3193 39.4673 21.3805C39.4673 22.4417 38.6039 23.305 37.5427 23.305ZM21.7932 3.20309C22.6695 2.39697 23.8083 1.95304 25 1.95304C26.1917 1.95304 27.3306 2.39697 28.2069 3.20309C28.8428 3.78812 29.2999 4.52608 29.5416 5.33835H20.4583C20.7001 4.52608 21.1572 3.78812 21.7932 3.20309ZM12.2741 15.3912C12.2741 10.925 15.9077 7.29139 20.3739 7.29139H29.626C34.0922 7.29139 37.7258 10.9249 37.7258 15.3912V17.5076C37.6651 17.5048 35.8132 17.5042 35.803 17.5045C35.3105 17.4482 28.4718 16.576 25.8625 11.6599C25.693 11.3407 25.3612 11.1411 24.9999 11.1411C24.6386 11.1411 24.3067 11.3406 24.1373 11.6599C21.4435 16.7353 14.2418 17.5004 14.1706 17.5074C14.1694 17.5075 14.1683 17.5077 14.1672 17.5078C14.1347 17.5046 12.3348 17.5047 12.2741 17.5076V15.3912ZM12.4573 23.305C11.3961 23.305 10.5327 22.4416 10.5327 21.3804C10.5327 20.3192 11.3961 19.4559 12.4573 19.4559H13.2874V22.0564C13.2874 22.4781 13.3104 22.8945 13.354 23.3049H12.4573V23.305ZM15.2405 22.0565V19.3233C16.0674 19.1775 17.3923 18.8823 18.8641 18.3166C21.5022 17.3028 23.5942 15.8024 24.9999 13.9306C26.4057 15.8024 28.4977 17.3028 31.1357 18.3166C32.6076 18.8823 33.9326 19.1774 34.7594 19.3233V22.0565C34.7594 27.4379 30.3813 31.8159 24.9999 31.8159C19.6186 31.8159 15.2405 27.4379 15.2405 22.0565ZM19.4746 43.4785L17.2003 39.2842L18.6433 37.7378C19.1519 38.998 20.1445 40.1187 21.585 41.042C21.7733 41.1626 21.9614 41.2748 22.1466 41.3789C21.0544 41.9842 20.1229 42.814 19.4746 43.4785ZM24.9992 40.5124C23.9741 40.1759 20.2005 38.7297 20.2005 35.6844V32.7398C21.666 33.4008 23.2908 33.7691 25.0001 33.7691C26.7093 33.7691 28.3341 33.4008 29.7996 32.7399V35.6845C29.7996 37.0998 28.9919 38.3409 27.3988 39.3734C26.4346 39.9984 25.4496 40.3638 24.9992 40.5124ZM30.5255 43.4785C29.8772 42.8139 28.9457 41.9841 27.8534 41.3789C28.0386 41.2749 28.2268 41.1626 28.415 41.042C29.8556 40.1187 30.8482 38.998 31.3568 37.7378L32.7946 39.2786C32.7935 39.2856 32.7922 39.2927 32.7914 39.2997L30.5255 43.4785Z" fill="#6754E9"/>
<path d="M28.8269 25.2172C29.097 24.7504 28.9374 24.153 28.4707 23.8829C28.0037 23.6128 27.4064 23.7724 27.1363 24.2392C26.6962 25 25.8776 25.4726 25.0001 25.4726C24.1226 25.4726 23.304 25 22.864 24.2393C22.594 23.7726 21.9967 23.6126 21.5298 23.8829C21.0629 24.1529 20.9033 24.7503 21.1734 25.2172C21.9614 26.5795 23.4277 27.4258 25.0002 27.4258C26.5724 27.4257 28.0388 26.5794 28.8269 25.2172Z" fill="#6754E9"/>
<path d="M25.9019 48.6484C25.6577 48.0153 24.7774 47.842 24.3092 48.331C23.878 48.7417 23.9525 49.5156 24.4577 49.8329C25.255 50.3648 26.2676 49.534 25.9019 48.6484Z" fill="#6754E9"/>
</svg>
