<svg width="36" height="36" viewBox="0 0 36 36" fill="none" xmlns="http://www.w3.org/2000/svg">
<g clip-path="url(#clip0_166_79)">
<path d="M34.5498 11.0856C33.6252 8.95535 32.3099 7.02879 30.6406 5.35943C28.9712 3.69007 27.0446 2.3748 24.9144 1.4502C22.6975 0.487898 20.3711 0 18 0C15.6289 0 13.3025 0.487898 11.0856 1.4502C8.95535 2.3748 7.02879 3.69007 5.35943 5.35943C3.69007 7.02879 2.3748 8.95535 1.4502 11.0856C0.487898 13.3025 0 15.6289 0 18C0 20.3711 0.487898 22.6975 1.4502 24.9144C2.37473 27.0446 3.69 28.9712 5.35943 30.6406C7.02879 32.3099 8.95535 33.6252 11.0856 34.5498C13.3025 35.5121 15.6289 36 18 36C20.3711 36 22.6975 35.5121 24.9144 34.5498C27.0446 33.6252 28.9712 32.3099 30.6406 30.6406C32.3099 28.9712 33.6252 27.0446 34.5498 24.9144C35.5121 22.6975 36 20.3711 36 18C36 15.6289 35.5121 13.3025 34.5498 11.0856ZM18 34.5938C9.00527 34.5938 1.40625 26.9947 1.40625 18C1.40625 9.00527 9.00527 1.40625 18 1.40625C26.9947 1.40625 34.5938 9.00527 34.5938 18C34.5938 26.9947 26.9947 34.5938 18 34.5938Z" fill="#6754E9"/>
<path d="M31.7795 12.2206C31.0152 10.4448 29.9258 8.8425 28.5417 7.4584C27.1575 6.07423 25.5553 4.98488 23.7795 4.22058C21.9338 3.42619 19.9894 3.02344 18 3.02344C15.2956 3.02344 12.4766 3.94692 9.84762 5.69398C9.52418 5.90892 9.43622 6.34535 9.65116 6.66872C9.86611 6.99216 10.3025 7.08005 10.6259 6.86517C13.0236 5.27189 15.5734 4.42969 18 4.42969C25.3559 4.42969 31.5703 10.6441 31.5703 18C31.5703 25.3559 25.3559 31.5703 18 31.5703C10.6441 31.5703 4.42969 25.3559 4.42969 18C4.42969 15.5739 5.27168 13.0239 6.86454 10.6258C7.07941 10.3023 6.99138 9.86597 6.66795 9.65109C6.34437 9.43622 5.90808 9.52432 5.6932 9.84776C3.94664 12.4772 3.02344 15.2962 3.02344 18C3.02344 19.9894 3.42619 21.9338 4.22051 23.7794C4.9848 25.5552 6.07416 27.1575 7.45833 28.5416C8.8425 29.9258 10.4447 31.0151 12.2206 31.7795C14.0662 32.5738 16.0106 32.9766 18 32.9766C19.9894 32.9766 21.9338 32.5738 23.7794 31.7795C25.5552 31.0152 27.1575 29.9258 28.5416 28.5417C29.9258 27.1575 31.0151 25.5553 31.7794 23.7795C32.5738 21.9338 32.9766 19.9894 32.9766 18C32.9766 16.0106 32.5738 14.0662 31.7795 12.2206Z" fill="#6754E9"/>
<path d="M8.08594 7.38281C7.69781 7.38281 7.38281 7.69781 7.38281 8.08594C7.38281 8.47406 7.69781 8.78906 8.08594 8.78906C8.47406 8.78906 8.78906 8.47406 8.78906 8.08594C8.78906 7.69781 8.47406 7.38281 8.08594 7.38281Z" fill="#6754E9"/>
<path d="M26.3166 12.4959C25.7853 11.9645 25.0791 11.6719 24.3281 11.6719C23.5771 11.6719 22.871 11.9645 22.3396 12.4959L15.8906 18.9449L13.6604 16.7146C13.129 16.1833 12.4229 15.8906 11.6719 15.8906C10.9209 15.8906 10.2147 16.1833 9.68358 16.7144C9.15209 17.2455 8.85938 17.9517 8.85938 18.7031C8.85938 19.4546 9.15209 20.1608 9.68337 20.6916L13.9021 24.9104C14.4335 25.4417 15.1397 25.7344 15.8906 25.7344C16.6416 25.7344 17.3478 25.4417 17.8791 24.9104L26.3164 16.4731C26.8479 15.942 27.1406 15.2358 27.1406 14.4844C27.1406 13.7329 26.8479 13.0267 26.3166 12.4959ZM25.3223 15.4785L16.8848 23.916C16.619 24.1817 16.266 24.3281 15.8906 24.3281C15.5153 24.3281 15.1623 24.1817 14.8965 23.916L10.6775 19.6971C10.4119 19.4316 10.2656 19.0787 10.2656 18.7031C10.2656 18.3276 10.4119 17.9746 10.6777 17.709C10.9435 17.4433 11.2965 17.2969 11.6719 17.2969C12.0472 17.2969 12.4002 17.4433 12.666 17.709L15.8906 20.9336L23.334 13.4902C23.5998 13.2245 23.9528 13.0781 24.3281 13.0781C24.7035 13.0781 25.0565 13.2245 25.3225 13.4904C25.5881 13.7559 25.7344 14.1088 25.7344 14.4844C25.7344 14.8599 25.5881 15.2129 25.3223 15.4785Z" fill="#6754E9"/>
</g>
<defs>
<clipPath id="clip0_166_79">
<rect width="36" height="36" fill="white"/>
</clipPath>
</defs>
</svg>
