<svg width="59" height="54" viewBox="0 0 59 54" fill="none" xmlns="http://www.w3.org/2000/svg">
<path d="M55.4546 23.7273H52.1818V0.909091C52.1818 0.363637 51.8182 0 51.2727 0H0.909091C0.363636 0 0 0.363637 0 0.909091V36.5455C0 37.0909 0.363636 37.4545 0.909091 37.4545H6.72727C6.63636 41.7273 6.54545 41.5455 8.81818 44.0909C10.3636 45.8182 10.7273 46.2727 10.7273 47.2727V53.0909C10.7273 53.6364 11.0909 54 11.6364 54H29.6364C30.1818 54 30.5455 53.6364 30.5455 53.0909V47.1818C30.5455 46.8182 30.6364 46.4545 30.8182 46.0909L32.4545 42.5455C33.0909 41.1818 32.8182 40.1818 32.9091 37.4545H37.5455V51.0909C37.5455 52.6364 38.7273 53.8182 40.2727 53.8182H55.4546C57 53.8182 58.1818 52.6364 58.1818 51.0909V26.4545C58.1818 25 57 23.7273 55.4546 23.7273ZM32.6364 31.1818C32.1818 30 30.9091 29.0909 29.5455 29.0909C28.8182 29.0909 28.0909 29.3636 27.5455 29.8182C26.9091 28.9091 25.9091 28.2727 24.7273 28.2727C24 28.2727 23.2727 28.5455 22.7273 29C22.0909 28.0909 21.0909 27.4545 19.9091 27.4545C19.3636 27.4545 18.8182 27.6364 18.3636 27.8182V21.5455C18.3636 19.7273 16.9091 18.1818 15 18.1818C13.1818 18.1818 11.6364 19.6364 11.6364 21.5455V30.2727C10.8182 30.5455 9.90909 31 9.09091 31.7273H5.81818V5.81818H46.3636V23.7273H40.2727C38.7273 23.7273 37.5455 24.9091 37.5455 26.4545V31.1818H32.6364ZM39.3636 30.5455H56.3636V47.1818H39.3636V30.5455ZM56.3636 26.4545V28.7273H39.3636V26.4545C39.3636 25.9091 39.7273 25.5455 40.2727 25.5455H55.4546C56 25.5455 56.3636 26 56.3636 26.4545ZM1.81818 1.81818H50.3636V23.7273H48.1818V4.90909C48.1818 4.36364 47.8182 4 47.2727 4H4.90909C4.36364 4 4 4.36364 4 4.90909V32.4545C4 33 4.36364 33.3636 4.90909 33.3636H7.45455C6.72727 34.6364 6.72727 35.4545 6.72727 35.5455H1.81818V1.81818ZM30.8182 41.7273L29.1818 45.2727C28.9091 45.8182 28.7273 46.4545 28.7273 47.0909V52.0909H12.5455V47.1818C12.5455 45.4545 11.7273 44.6364 10.1818 42.8182C7.72727 40.0909 8.81818 41.2727 8.54545 35.5455C8.90909 33.7273 10.2727 32.6364 11.6364 32V37.3636C11.6364 37.9091 12 38.2727 12.5455 38.2727C13.0909 38.2727 13.4545 37.9091 13.4545 37.3636V21.4545C13.4545 20.6364 14.1818 19.9091 15 19.9091C15.8182 19.9091 16.5455 20.6364 16.5455 21.4545V34.9091C16.5455 35.4545 16.9091 35.8182 17.4545 35.8182C18 35.8182 18.3636 35.4545 18.3636 34.9091V30.6364C18.3636 29.8182 19.0909 29.0909 19.9091 29.0909C20.7273 29.0909 21.4545 29.8182 21.4545 30.6364C21.4545 30.8182 21.4545 35.0909 21.4545 34.9091C21.4545 35.4545 21.8182 35.8182 22.3636 35.8182C22.9091 35.8182 23.2727 35.4545 23.2727 34.9091V31.5455C23.2727 30.7273 24 30 24.8182 30C25.6364 30 26.3636 30.7273 26.3636 31.5455C26.3636 31.9091 26.3636 35 26.3636 34.9091C26.3636 35.4545 26.7273 35.8182 27.2727 35.8182C27.8182 35.8182 28.1818 35.4545 28.1818 34.9091V32.4545C28.1818 31.6364 28.9091 30.9091 29.7273 30.9091C30.5455 30.9091 31.2727 31.6364 31.2727 32.4545C31 40.8182 31.1818 40.9091 30.8182 41.7273ZM32.8182 35.6364V33H37.4545V35.6364H32.8182ZM55.4546 52H40.2727C39.7273 52 39.3636 51.6364 39.3636 51.0909V48.9091H56.3636V51.0909C56.3636 51.6364 56 52 55.4546 52Z" fill="#F15F25"/>
<path d="M14.9091 14.0908C10.9091 14.0908 7.72729 17.1817 7.72729 20.909C7.72729 21.4545 8.09093 21.8181 8.63639 21.8181C9.18184 21.8181 9.54548 21.4545 9.54548 20.909C9.54548 18.1817 12 15.909 14.9091 15.909C17.9091 15.909 20.2727 18.1817 20.2727 20.909C20.2727 21.4545 20.6364 21.8181 21.1818 21.8181C21.7273 21.8181 22.0909 21.4545 22.0909 20.909C22.0909 17.0908 18.9091 14.0908 14.9091 14.0908Z" fill="#F15F25"/>
<path d="M42.9092 9.36368C42.9092 8.81823 42.5456 8.45459 42.0001 8.45459H23.5456C23.0001 8.45459 22.6365 8.81823 22.6365 9.36368C22.6365 9.90914 23.0001 10.2728 23.5456 10.2728H41.9092C42.4547 10.2728 42.9092 9.81823 42.9092 9.36368Z" fill="#F15F25"/>
<path d="M42.909 14.8183C42.909 14.2728 42.5453 13.9092 41.9999 13.9092H26.2726C25.7272 13.9092 25.3635 14.2728 25.3635 14.8183C25.3635 15.3637 25.7272 15.7274 26.2726 15.7274H41.909C42.4544 15.7274 42.909 15.2728 42.909 14.8183Z" fill="#F15F25"/>
<path d="M42.909 20.2726C42.909 19.7272 42.5454 19.3635 41.9999 19.3635H28.9999C28.4545 19.3635 28.0908 19.7272 28.0908 20.2726C28.0908 20.8181 28.4545 21.1817 28.9999 21.1817H41.909C42.4545 21.1817 42.909 20.7272 42.909 20.2726Z" fill="#F15F25"/>
<path d="M44.1819 41.5454H42.3637C41.8182 41.5454 41.4546 41.909 41.4546 42.4545C41.4546 43 41.8182 43.3636 42.3637 43.3636H44.1819C44.7273 43.3636 45.091 43 45.091 42.4545C45.091 41.909 44.7273 41.5454 44.1819 41.5454Z" fill="#F15F25"/>
<path d="M48.7273 41.5454H46.9091C46.3636 41.5454 46 41.909 46 42.4545C46 43 46.3636 43.3636 46.9091 43.3636H48.7273C49.2727 43.3636 49.6364 43 49.6364 42.4545C49.6364 41.909 49.2727 41.5454 48.7273 41.5454Z" fill="#F15F25"/>
<path d="M53.2727 41.5454H51.4545C50.909 41.5454 50.5454 41.909 50.5454 42.4545C50.5454 43 50.909 43.3636 51.4545 43.3636H53.2727C53.8181 43.3636 54.1818 43 54.1818 42.4545C54.1818 41.909 53.8181 41.5454 53.2727 41.5454Z" fill="#F15F25"/>
</svg>
