<svg width="60" height="60" viewBox="0 0 60 60" fill="none" xmlns="http://www.w3.org/2000/svg">
<path d="M55.9092 18.3636H43.0001C42.9092 18.3636 42.9092 18.3636 42.9092 18.3636C42.4546 18.3636 42.0001 18.4545 41.6365 18.6364C41.4546 18.7273 41.0001 18.9091 36.5455 24.4545V10.9091C36.5455 10.3636 36.1819 10 35.6365 10H1.81827C1.27282 10 0.90918 10.3636 0.90918 10.9091V35.9091C0.90918 36.4545 1.27282 36.8182 1.81827 36.8182H17.3637L7.81827 50.2727C7.54554 50.7273 7.63645 51.2727 8.00009 51.5455C8.45463 51.8182 9.00009 51.7273 9.27282 51.3636L18.1819 38.7273V47.4545C18.1819 48 18.5455 48.3636 19.091 48.3636C19.6365 48.3636 20.0001 48 20.0001 47.4545V38.7273L28.8183 51.3636C29.091 51.8182 29.6364 51.9091 30.091 51.5455C30.5455 51.2727 30.6364 50.7273 30.2728 50.2727L20.8183 36.7273H35.5455C36.091 36.7273 36.4546 36.3636 36.4546 35.8182V33.1818C37.0001 33 37.5455 32.7273 37.9092 32.3636L40.2728 29.8182V51.8182C40.2728 53.4545 41.5455 54.9091 43.091 55.0909C45.0001 55.2727 46.5455 53.8182 46.5455 52V39.8182C46.5455 39.3636 46.9092 38.9091 47.4546 38.9091C47.9092 38.9091 48.3637 39.2727 48.3637 39.8182V51.8182C48.3637 53.4545 49.6365 54.9091 51.1819 55.0909H51.5455C53.2728 55.0909 54.7274 53.6364 54.7274 51.9091V35.0909C55.091 35.2727 55.5455 35.3636 56.091 35.3636C57.8183 35.3636 59.2728 33.9091 59.2728 32.1818V21.5455C59.091 19.7273 57.6365 18.3636 55.9092 18.3636ZM2.72736 34.9091V11.8182H34.6365V22.9091L33.3637 21C32.5455 19.8182 31.091 19.2727 29.8183 19.7273L27.5455 16.3636C27.2728 15.9091 26.7274 15.8182 26.2728 16.1818C25.8183 16.4545 25.7274 17 26.091 17.4545L28.4546 20.7273C27.5455 21.8182 27.5455 23.3636 28.1819 24.4545L33.0001 32C33.3637 32.6364 34.0001 33.0909 34.6365 33.2727V35H2.72736V34.9091ZM57.2728 32.2727C57.2728 33 56.6365 33.6364 55.9092 33.6364C55.1819 33.6364 54.5455 33 54.5455 32.2727V22.9091C54.5455 22.3636 54.1819 22 53.6365 22C53.091 22 52.7274 22.3636 52.7274 22.9091V32.1818V51.8182C52.7274 52.6364 52.091 53.1818 51.2728 53.1818C50.6365 53.0909 50.091 52.4545 50.091 51.7273V39.8182C50.091 38.3636 48.9092 37.0909 47.3637 37.0909C45.9092 37.0909 44.6364 38.2727 44.6364 39.8182V51.9091C44.6364 52.7273 44.0001 53.2727 43.1819 53.2727C42.5455 53.1818 42.0001 52.5455 42.0001 51.8182V27.5455C42.0001 27.1818 41.7274 26.8182 41.4546 26.7273C41.091 26.6364 40.7274 26.6364 40.4546 26.9091L36.5455 31.0909C36.0001 31.7273 34.9092 31.6364 34.4546 30.9091L29.6364 23.3636C28.7274 21.9091 30.9092 20.4545 31.9092 21.9091L35.1819 27C35.5455 27.5455 36.2728 27.5455 36.6365 27.0909C39.0001 24.0909 41.7274 20.7273 42.3637 20.1818C42.5455 20.0909 42.7274 20.0909 42.9092 20.0909H43.0001H55.9092C56.6365 20.0909 57.2728 20.7273 57.2728 21.4545V32.2727Z" fill="#F15F25"/>
<path d="M47.2728 16.6364C50.4546 16.6364 53.091 14 53.091 10.8182C53.091 7.63636 50.4546 5 47.2728 5C44.091 5 41.4546 7.63636 41.4546 10.8182C41.4546 14 44.091 16.6364 47.2728 16.6364ZM47.2728 6.72727C49.4546 6.72727 51.2728 8.54545 51.2728 10.7273C51.2728 12.9091 49.4546 14.7273 47.2728 14.7273C45.091 14.7273 43.2728 12.9091 43.2728 10.7273C43.2728 8.54545 45.091 6.72727 47.2728 6.72727Z" fill="#F15F25"/>
<path d="M6.54557 16.5455H18.1819C18.7274 16.5455 19.091 16.1818 19.091 15.6364C19.091 15.0909 18.7274 14.7273 18.1819 14.7273H6.54557C6.00011 14.7273 5.63647 15.0909 5.63647 15.6364C5.63647 16.1818 6.00011 16.5455 6.54557 16.5455Z" fill="#F15F25"/>
<path d="M6.54557 21.7274H22.7274C23.2728 21.7274 23.6365 21.3637 23.6365 20.8183C23.6365 20.2728 23.2728 19.9092 22.7274 19.9092H6.54557C6.00011 19.9092 5.63647 20.2728 5.63647 20.8183C5.63647 21.2728 6.00011 21.7274 6.54557 21.7274Z" fill="#F15F25"/>
<path d="M6.54557 26.8182H24.5456C25.091 26.8182 25.4547 26.4545 25.4547 25.9091C25.4547 25.3636 25.091 25 24.5456 25H6.54557C6.00011 25 5.63647 25.3636 5.63647 25.9091C5.63647 26.4545 6.00011 26.8182 6.54557 26.8182Z" fill="#F15F25"/>
<path d="M26.3637 30.0908H6.54557C6.00011 30.0908 5.63647 30.4545 5.63647 30.9999C5.63647 31.5454 6.00011 31.909 6.54557 31.909H26.3637C26.9092 31.909 27.2728 31.5454 27.2728 30.9999C27.2728 30.5454 26.9092 30.0908 26.3637 30.0908Z" fill="#F15F25"/>
<path d="M47.2729 28.9092C46.7274 28.9092 46.3638 29.2728 46.3638 29.8183V31.6365C46.3638 32.1819 46.7274 32.5455 47.2729 32.5455C47.8183 32.5455 48.182 32.1819 48.182 31.6365V29.8183C48.182 29.2728 47.8183 28.9092 47.2729 28.9092Z" fill="#F15F25"/>
<path d="M47.2729 23.4546C46.7274 23.4546 46.3638 23.8182 46.3638 24.3637V26.1819C46.3638 26.7273 46.7274 27.091 47.2729 27.091C47.8183 27.091 48.182 26.7273 48.182 26.1819V24.3637C48.182 23.8182 47.8183 23.4546 47.2729 23.4546Z" fill="#F15F25"/>
</svg>
