<svg width="60" height="60" viewBox="0 0 60 60" fill="none" xmlns="http://www.w3.org/2000/svg">
<path d="M54.6364 3.27295H5.36366C2.90912 3.27295 0.909119 5.27295 0.909119 7.72749V40.3639C0.909119 42.6366 2.7273 44.6366 5.00003 44.7275H22.9091V49.6366H17.1818C15.1818 49.6366 13.6364 51.2729 13.6364 53.182C13.6364 55.182 15.2728 56.7275 17.1818 56.7275H42.8182C44.8182 56.7275 46.3637 55.0911 46.3637 53.182C46.3637 51.182 44.7273 49.6366 42.8182 49.6366H37.1819V44.7275H54.7273C57.1819 44.7275 59.1819 42.7275 59.1819 40.2729V7.72749C59.0909 5.27295 57.0909 3.27295 54.6364 3.27295ZM5.36366 5.09113H54.7273C56.1819 5.09113 57.3637 6.27295 57.3637 7.72749V36.9093H22L21.8182 29.9093C21.8182 29.2729 22 28.7275 22.4546 28.2729C22.9091 27.8184 23.4546 27.6366 24.0909 27.6366C25.3637 27.6366 26.7273 27.182 27.7273 26.4548L35.4546 20.5457C35.8182 20.2729 35.9091 19.7275 35.6364 19.2729L35.1819 18.6366L43.5455 13.0911C44 12.8184 44.0909 12.2729 43.8182 11.8184C43.7273 11.6366 43.5455 11.5457 43.3637 11.4548H52.8182C53.3637 11.4548 53.7273 11.0911 53.7273 10.5457C53.7273 10.0002 53.3637 9.63659 52.8182 9.63659H28.2728C27.7273 9.63659 27.3637 10.0002 27.3637 10.5457C27.3637 11.0911 27.7273 11.4548 28.2728 11.4548H42.7273C42.6364 11.4548 42.6364 11.4548 42.5455 11.5457L34.0909 17.182L33.6364 16.5457C33.3637 16.182 32.8182 16.0002 32.3637 16.2729L22.7273 22.3639H16.1818C15.8182 22.3639 15.4546 22.6366 15.3637 23.0002L14.1818 26.2729H13.8182L12.6364 23.0002C12.5455 22.6366 12.1818 22.3639 11.8182 22.3639C8.7273 22.3639 6.27276 24.8184 6.27276 27.9093V36.9093H2.7273V7.72749C2.7273 6.27295 3.90912 5.09113 5.36366 5.09113ZM11.0909 33.0911C10.5455 33.0911 10.1818 33.4548 10.1818 34.0002V36.9093H8.09094V27.9093C8.09094 26.0911 9.45457 24.5457 11.1818 24.2729L12.3637 27.5457C12.4546 27.9093 12.8182 28.182 13.1818 28.182H14.9091C15.2728 28.182 15.6364 27.9093 15.7273 27.5457L16.9091 24.2729H23.0909C23.2728 24.2729 23.4546 24.182 23.5455 24.0911L32.7273 18.182C32.8182 18.2729 33.7273 19.6366 33.6364 19.5457L26.5455 24.9093C25.8182 25.4548 24.9091 25.7275 24 25.7275C22.9091 25.7275 21.9091 26.182 21.0909 26.9093C20.2728 27.7275 19.9091 28.7275 19.9091 29.9093L20.0909 36.9093H11.8182V34.0002C12 33.4548 11.5455 33.0911 11.0909 33.0911ZM44.5455 53.182C44.5455 54.182 43.7273 54.9093 42.8182 54.9093H17.1818C16.1818 54.9093 15.4546 54.0911 15.4546 53.182C15.4546 52.2729 16.2728 51.4548 17.1818 51.4548H42.8182C43.8182 51.4548 44.5455 52.182 44.5455 53.182ZM35.3637 49.6366H24.6364V44.7275H35.2728V49.6366H35.3637ZM54.6364 42.9093C2.7273 42.9093 5.45457 42.9093 5.09094 42.9093C3.81821 42.8184 2.7273 41.6366 2.7273 40.2729V38.7275H57.2728V40.2729C57.2728 41.7275 56.0909 42.9093 54.6364 42.9093Z" fill="white"/>
<path d="M52.8182 15.5459H41.2727C40.7273 15.5459 40.3636 15.9095 40.3636 16.455C40.3636 17.0004 40.7273 17.3641 41.2727 17.3641H52.8182C53.3636 17.3641 53.7273 17.0004 53.7273 16.455C53.7273 15.9095 53.3636 15.5459 52.8182 15.5459Z" fill="white"/>
<path d="M52.8182 21.4546H36.8182C36.2728 21.4546 35.9091 21.8182 35.9091 22.3637C35.9091 22.9091 36.2728 23.2728 36.8182 23.2728H52.9091C53.4546 23.2728 53.8182 22.9091 53.8182 22.3637C53.7273 21.8182 53.3637 21.4546 52.8182 21.4546Z" fill="white"/>
<path d="M52.8182 27.2729H29.7273C29.1819 27.2729 28.8182 27.6366 28.8182 28.182C28.8182 28.7275 29.1819 29.0911 29.7273 29.0911H52.8182C53.3637 29.0911 53.7273 28.7275 53.7273 28.182C53.7273 27.6366 53.3637 27.2729 52.8182 27.2729Z" fill="white"/>
<path d="M14.0909 20.7275C16.7273 20.7275 18.8182 18.6366 18.8182 16.0002C18.8182 13.3639 16.7273 11.2729 14.0909 11.2729C11.4546 11.2729 9.36365 13.3639 9.36365 16.0002C9.36365 18.5457 11.4546 20.7275 14.0909 20.7275ZM14.0909 13.0002C15.7273 13.0002 17 14.2729 17 15.9093C17 17.5457 15.7273 18.8184 14.0909 18.8184C12.4546 18.8184 11.1818 17.5457 11.1818 15.9093C11.1818 14.3639 12.4546 13.0002 14.0909 13.0002Z" fill="white"/>
</svg>
