<svg width="60" height="60" viewBox="0 0 60 60" fill="none" xmlns="http://www.w3.org/2000/svg">
<path d="M55.9091 18.3636H43C42.9091 18.3636 42.9091 18.3636 42.9091 18.3636C42.4546 18.3636 42 18.4545 41.6364 18.6364C41.4546 18.7273 41 18.9091 36.5455 24.4545V10.9091C36.5455 10.3636 36.1818 10 35.6364 10H1.81821C1.27275 10 0.909119 10.3636 0.909119 10.9091V35.9091C0.909119 36.4545 1.27275 36.8182 1.81821 36.8182H17.3637L7.81821 50.2727C7.54548 50.7273 7.63639 51.2727 8.00003 51.5455C8.45457 51.8182 9.00003 51.7273 9.27275 51.3636L18.1818 38.7273V47.4545C18.1818 48 18.5455 48.3636 19.0909 48.3636C19.6364 48.3636 20 48 20 47.4545V38.7273L28.8182 51.3636C29.0909 51.8182 29.6364 51.9091 30.0909 51.5455C30.5455 51.2727 30.6364 50.7273 30.2728 50.2727L20.8182 36.7273H35.5455C36.0909 36.7273 36.4546 36.3636 36.4546 35.8182V33.1818C37 33 37.5455 32.7273 37.9091 32.3636L40.2728 29.8182V51.8182C40.2728 53.4545 41.5455 54.9091 43.0909 55.0909C45 55.2727 46.5455 53.8182 46.5455 52V39.8182C46.5455 39.3636 46.9091 38.9091 47.4546 38.9091C47.9091 38.9091 48.3637 39.2727 48.3637 39.8182V51.8182C48.3637 53.4545 49.6364 54.9091 51.1818 55.0909H51.5455C53.2728 55.0909 54.7273 53.6364 54.7273 51.9091V35.0909C55.0909 35.2727 55.5455 35.3636 56.0909 35.3636C57.8182 35.3636 59.2728 33.9091 59.2728 32.1818V21.5455C59.0909 19.7273 57.6364 18.3636 55.9091 18.3636ZM2.7273 34.9091V11.8182H34.6364V22.9091L33.3637 21C32.5455 19.8182 31.0909 19.2727 29.8182 19.7273L27.5455 16.3636C27.2728 15.9091 26.7273 15.8182 26.2728 16.1818C25.8182 16.4545 25.7273 17 26.0909 17.4545L28.4546 20.7273C27.5455 21.8182 27.5455 23.3636 28.1818 24.4545L33 32C33.3637 32.6364 34 33.0909 34.6364 33.2727V35H2.7273V34.9091ZM57.2728 32.2727C57.2728 33 56.6364 33.6364 55.9091 33.6364C55.1818 33.6364 54.5455 33 54.5455 32.2727V22.9091C54.5455 22.3636 54.1818 22 53.6364 22C53.0909 22 52.7273 22.3636 52.7273 22.9091V32.1818V51.8182C52.7273 52.6364 52.0909 53.1818 51.2728 53.1818C50.6364 53.0909 50.0909 52.4545 50.0909 51.7273V39.8182C50.0909 38.3636 48.9091 37.0909 47.3637 37.0909C45.9091 37.0909 44.6364 38.2727 44.6364 39.8182V51.9091C44.6364 52.7273 44 53.2727 43.1818 53.2727C42.5455 53.1818 42 52.5455 42 51.8182V27.5455C42 27.1818 41.7273 26.8182 41.4546 26.7273C41.0909 26.6364 40.7273 26.6364 40.4546 26.9091L36.5455 31.0909C36 31.7273 34.9091 31.6364 34.4546 30.9091L29.6364 23.3636C28.7273 21.9091 30.9091 20.4545 31.9091 21.9091L35.1818 27C35.5455 27.5455 36.2728 27.5455 36.6364 27.0909C39 24.0909 41.7273 20.7273 42.3637 20.1818C42.5455 20.0909 42.7273 20.0909 42.9091 20.0909H43H55.9091C56.6364 20.0909 57.2728 20.7273 57.2728 21.4545V32.2727Z" fill="white"/>
<path d="M47.2728 16.6364C50.4546 16.6364 53.091 14 53.091 10.8182C53.091 7.63636 50.4546 5 47.2728 5C44.091 5 41.4546 7.63636 41.4546 10.8182C41.4546 14 44.091 16.6364 47.2728 16.6364ZM47.2728 6.72727C49.4546 6.72727 51.2728 8.54545 51.2728 10.7273C51.2728 12.9091 49.4546 14.7273 47.2728 14.7273C45.091 14.7273 43.2728 12.9091 43.2728 10.7273C43.2728 8.54545 45.091 6.72727 47.2728 6.72727Z" fill="white"/>
<path d="M6.5455 16.5452H18.1819C18.7273 16.5452 19.091 16.1816 19.091 15.6361C19.091 15.0907 18.7273 14.7271 18.1819 14.7271H6.5455C6.00005 14.7271 5.63641 15.0907 5.63641 15.6361C5.63641 16.1816 6.00005 16.5452 6.5455 16.5452Z" fill="white"/>
<path d="M6.5455 21.7274H22.7273C23.2728 21.7274 23.6364 21.3637 23.6364 20.8183C23.6364 20.2728 23.2728 19.9092 22.7273 19.9092H6.5455C6.00005 19.9092 5.63641 20.2728 5.63641 20.8183C5.63641 21.2728 6.00005 21.7274 6.5455 21.7274Z" fill="white"/>
<path d="M6.5455 26.8182H24.5455C25.091 26.8182 25.4546 26.4545 25.4546 25.9091C25.4546 25.3636 25.091 25 24.5455 25H6.5455C6.00005 25 5.63641 25.3636 5.63641 25.9091C5.63641 26.4545 6.00005 26.8182 6.5455 26.8182Z" fill="white"/>
<path d="M26.3637 30.0908H6.5455C6.00005 30.0908 5.63641 30.4545 5.63641 30.9999C5.63641 31.5454 6.00005 31.909 6.5455 31.909H26.3637C26.9091 31.909 27.2728 31.5454 27.2728 30.9999C27.2728 30.5454 26.9091 30.0908 26.3637 30.0908Z" fill="white"/>
<path d="M47.2727 28.9092C46.7273 28.9092 46.3636 29.2728 46.3636 29.8183V31.6365C46.3636 32.1819 46.7273 32.5455 47.2727 32.5455C47.8182 32.5455 48.1818 32.1819 48.1818 31.6365V29.8183C48.1818 29.2728 47.8182 28.9092 47.2727 28.9092Z" fill="white"/>
<path d="M47.2727 23.4546C46.7273 23.4546 46.3636 23.8182 46.3636 24.3637V26.1819C46.3636 26.7273 46.7273 27.091 47.2727 27.091C47.8182 27.091 48.1818 26.7273 48.1818 26.1819V24.3637C48.1818 23.8182 47.8182 23.4546 47.2727 23.4546Z" fill="white"/>
</svg>
