<svg width="60" height="60" viewBox="0 0 60 60" fill="none" xmlns="http://www.w3.org/2000/svg">
<path d="M54.6365 3.27271H5.36373C2.90918 3.27271 0.90918 5.27271 0.90918 7.72725V40.3636C0.90918 42.6363 2.72736 44.6363 5.00009 44.7273H22.9092V49.6363H17.1819C15.1819 49.6363 13.6365 51.2727 13.6365 53.1818C13.6365 55.1818 15.2728 56.7273 17.1819 56.7273H42.8183C44.8183 56.7273 46.3637 55.0909 46.3637 53.1818C46.3637 51.1818 44.7274 49.6363 42.8183 49.6363H37.1819V44.7273H54.7274C57.1819 44.7273 59.1819 42.7272 59.1819 40.2727V7.72725C59.091 5.27271 57.091 3.27271 54.6365 3.27271ZM5.36373 5.09089H54.7274C56.1819 5.09089 57.3637 6.27271 57.3637 7.72725V36.9091H22.0001L21.8183 29.9091C21.8183 29.2727 22.0001 28.7272 22.4546 28.2727C22.9092 27.8182 23.4546 27.6363 24.091 27.6363C25.3637 27.6363 26.7274 27.1818 27.7274 26.4545L35.4546 20.5454C35.8183 20.2727 35.9092 19.7273 35.6365 19.2727L35.1819 18.6363L43.5455 13.0909C44.0001 12.8182 44.091 12.2727 43.8183 11.8182C43.7274 11.6363 43.5455 11.5454 43.3637 11.4545H52.8183C53.3637 11.4545 53.7274 11.0909 53.7274 10.5454C53.7274 9.99998 53.3637 9.63634 52.8183 9.63634H28.2728C27.7274 9.63634 27.3637 9.99998 27.3637 10.5454C27.3637 11.0909 27.7274 11.4545 28.2728 11.4545H42.7274C42.6365 11.4545 42.6365 11.4545 42.5455 11.5454L34.091 17.1818L33.6365 16.5454C33.3637 16.1818 32.8183 16 32.3637 16.2727L22.7274 22.3636H16.1819C15.8183 22.3636 15.4546 22.6363 15.3637 23L14.1819 26.2727H13.8183L12.6365 23C12.5455 22.6363 12.1819 22.3636 11.8183 22.3636C8.72736 22.3636 6.27282 24.8182 6.27282 27.9091V36.9091H2.72736V7.72725C2.72736 6.27271 3.90918 5.09089 5.36373 5.09089ZM11.091 33.0909C10.5455 33.0909 10.1819 33.4545 10.1819 34V36.9091H8.091V27.9091C8.091 26.0909 9.45464 24.5454 11.1819 24.2727L12.3637 27.5454C12.4546 27.9091 12.8183 28.1818 13.1819 28.1818H14.9092C15.2728 28.1818 15.6365 27.9091 15.7274 27.5454L16.9092 24.2727H23.091C23.2728 24.2727 23.4546 24.1818 23.5455 24.0909L32.7274 18.1818C32.8183 18.2727 33.7274 19.6363 33.6365 19.5454L26.5455 24.9091C25.8183 25.4545 24.9092 25.7272 24.0001 25.7272C22.9092 25.7272 21.9092 26.1818 21.091 26.9091C20.2728 27.7272 19.9092 28.7273 19.9092 29.9091L20.091 36.9091H11.8183V34C12.0001 33.4545 11.5455 33.0909 11.091 33.0909ZM44.5455 53.1818C44.5455 54.1818 43.7274 54.9091 42.8183 54.9091H17.1819C16.1819 54.9091 15.4546 54.0909 15.4546 53.1818C15.4546 52.2727 16.2728 51.4545 17.1819 51.4545H42.8183C43.8183 51.4545 44.5455 52.1818 44.5455 53.1818ZM35.3637 49.6363H24.6365V44.7273H35.2728V49.6363H35.3637ZM54.6365 42.9091C2.72736 42.9091 5.45463 42.9091 5.091 42.9091C3.81827 42.8182 2.72736 41.6363 2.72736 40.2727V38.7272H57.2728V40.2727C57.2728 41.7272 56.091 42.9091 54.6365 42.9091Z" fill="#F15F25"/>
<path d="M52.8183 15.5454H41.2729C40.7274 15.5454 40.3638 15.909 40.3638 16.4545C40.3638 17 40.7274 17.3636 41.2729 17.3636H52.8183C53.3638 17.3636 53.7274 17 53.7274 16.4545C53.7274 15.909 53.3638 15.5454 52.8183 15.5454Z" fill="#F15F25"/>
<path d="M52.8183 21.4546H36.8183C36.2728 21.4546 35.9092 21.8182 35.9092 22.3637C35.9092 22.9091 36.2728 23.2728 36.8183 23.2728H52.9092C53.4546 23.2728 53.8183 22.9091 53.8183 22.3637C53.7274 21.8182 53.3637 21.4546 52.8183 21.4546Z" fill="#F15F25"/>
<path d="M52.8184 27.2727H29.7275C29.182 27.2727 28.8184 27.6363 28.8184 28.1818C28.8184 28.7273 29.182 29.0909 29.7275 29.0909H52.8184C53.3638 29.0909 53.7274 28.7273 53.7274 28.1818C53.7274 27.6363 53.3638 27.2727 52.8184 27.2727Z" fill="#F15F25"/>
<path d="M14.091 20.7273C16.7274 20.7273 18.8183 18.6363 18.8183 16C18.8183 13.3636 16.7274 11.2727 14.091 11.2727C11.4547 11.2727 9.36377 13.3636 9.36377 16C9.36377 18.5454 11.4547 20.7273 14.091 20.7273ZM14.091 13C15.7274 13 17.0001 14.2727 17.0001 15.9091C17.0001 17.5454 15.7274 18.8182 14.091 18.8182C12.4547 18.8182 11.182 17.5454 11.182 15.9091C11.182 14.3636 12.4547 13 14.091 13Z" fill="#F15F25"/>
</svg>
