<svg width="60" height="60" viewBox="0 0 60 60" fill="none" xmlns="http://www.w3.org/2000/svg">
<path d="M50.2729 43.0908C49.7274 43.0908 49.3638 43.4545 49.3638 43.9999V44.4545C49.3638 44.9999 49.7274 45.3635 50.2729 45.3635C50.8183 45.3635 51.182 44.9999 51.182 44.4545V43.9999C51.182 43.4545 50.7274 43.0908 50.2729 43.0908Z" fill="#F15F25"/>
<path d="M41.9091 43.0908C41.3636 43.0908 41 43.4545 41 43.9999V44.4545C41 44.9999 41.3636 45.3635 41.9091 45.3635C42.4545 45.3635 42.8182 44.9999 42.8182 44.4545V43.9999C42.8182 43.4545 42.4545 43.0908 41.9091 43.0908Z" fill="#F15F25"/>
<path d="M46.091 43.0908C45.5455 43.0908 45.1819 43.4545 45.1819 43.9999V44.4545C45.1819 44.9999 45.5455 45.3635 46.091 45.3635C46.6364 45.3635 47.0001 44.9999 47.0001 44.4545V43.9999C47.0001 43.4545 46.5455 43.0908 46.091 43.0908Z" fill="#F15F25"/>
<path d="M8.54557 31.0909H27.091C27.6365 31.0909 28.0001 30.7273 28.0001 30.1818C28.0001 29.6364 27.6365 29.2728 27.091 29.2728H25.6365V15.6364C25.6365 15.0909 25.2728 14.7273 24.7274 14.7273C24.1819 14.7273 23.8183 15.0909 23.8183 15.6364V29.2728H21.0001V22.7273C21.0001 22.1818 20.6365 21.8182 20.091 21.8182C19.5456 21.8182 19.1819 22.1818 19.1819 22.7273V29.2728H16.3637V15.6364C16.3637 15.0909 16.0001 14.7273 15.4547 14.7273C14.9092 14.7273 14.5456 15.0909 14.5456 15.6364V29.2728H11.8183V22.5455C11.8183 22 11.4547 21.6364 10.9092 21.6364C10.3637 21.6364 10.0001 22 10.0001 22.5455V29.2728H8.54557C8.00011 29.2728 7.63647 29.6364 7.63647 30.1818C7.63647 30.7273 8.00011 31.0909 8.54557 31.0909Z" fill="#F15F25"/>
<path d="M34.0001 25.6363H34.2728C34.6364 25.6363 34.7273 25.909 34.7273 25.9999C34.7273 26.0908 34.8182 26.3635 34.6364 26.5454L34.4546 26.7272C34.0001 27.1817 33.7273 27.7272 33.7273 28.3636C33.7273 28.9999 33.9092 29.5454 34.3637 29.9999L35.091 30.8181C36.0001 31.7272 37.4546 31.8181 38.4546 30.909L38.8182 30.5454C39.091 30.3635 39.2728 30.3636 39.3637 30.4545C39.4546 30.4545 39.7273 30.6363 39.7273 30.909V31.4545C39.7273 32.7272 40.8182 33.8181 42.091 33.8181H43.1819C44.4546 33.8181 45.5455 32.7272 45.5455 31.4545C45.5455 31.0908 45.8182 30.9999 45.9092 30.9999C46.0001 30.9999 46.2728 30.909 46.4546 31.0908C46.9092 31.5454 47.4546 31.8181 48.091 31.8181C48.7273 31.8181 49.2728 31.6363 49.7273 31.1817L50.5455 30.4545C51.4546 29.5454 51.5455 28.0908 50.6364 27.0908L50.4546 26.909C50.2728 26.6363 50.2728 26.4545 50.3637 26.3635C50.3637 26.2726 50.5455 26.0908 50.8182 26.0908H51.091C52.3637 26.0908 53.4546 25.0908 53.4546 23.8181V22.7272C53.4546 22.0908 53.2728 21.5454 52.8182 21.0908C52.3637 20.6363 51.8182 20.3635 51.1819 20.3635C51.091 20.3635 50.6364 20.4545 50.4546 19.9999C50.2728 19.5454 50.7273 19.3635 50.8182 19.2726C51.7273 18.3635 51.8182 16.909 50.9092 15.909L50.1819 15.0908C49.7273 14.6363 49.1819 14.3635 48.5455 14.3635C47.9092 14.3635 47.3637 14.5454 46.9092 14.9999L46.5455 15.3635C46.2728 15.5454 46.091 15.5454 46.0001 15.4545C45.9092 15.4545 45.6364 15.2726 45.6364 14.9999V14.4545C45.6364 13.1817 44.5455 12.0908 43.2728 12.0908H42.1819C40.9092 12.0908 39.8182 13.1817 39.8182 14.4545C39.8182 14.8181 39.5455 14.909 39.4546 14.909C39.3637 14.909 39.091 14.9999 38.9092 14.8181C38.0001 13.909 36.5455 13.8181 35.5455 14.7272L34.7273 15.4545C34.2728 15.909 34.0001 16.4545 34.0001 17.0908C34.0001 17.7272 34.1819 18.2726 34.6364 18.7272L34.8182 18.909C35.0001 19.1817 35.0001 19.3635 34.9092 19.4545C34.9092 19.5454 34.7273 19.7272 34.4546 19.7272H34.1819C32.9092 19.7272 31.8182 20.7272 31.8182 21.9999V23.0908C31.7273 24.5454 32.7273 25.5454 34.0001 25.6363ZM33.5455 22.1817C33.5455 21.909 33.8182 21.6363 34.091 21.6363H34.3637C35.2728 21.6363 36.1819 21.0908 36.5455 20.2726C36.9092 19.4545 36.7273 18.3635 36.091 17.7272L35.9092 17.5454C35.8182 17.4545 35.7273 17.2726 35.7273 17.1817C35.7273 17.0908 35.8182 16.909 35.9092 16.8181L36.7273 16.0908C36.9092 15.909 37.2728 15.909 37.4546 16.0908C38.091 16.8181 39.091 16.9999 40.0001 16.6363C40.9092 16.2726 41.4546 15.4545 41.4546 14.4545C41.4546 14.1817 41.7273 13.909 42.0001 13.909H43.091C43.3637 13.909 43.6364 14.1817 43.6364 14.4545V14.9999C43.6364 15.9999 44.1819 16.8181 45.091 17.1817C46.0001 17.5454 46.9092 17.3635 47.6364 16.7272L48.0001 16.3635C48.1819 16.1817 48.5455 16.1817 48.7273 16.3635L49.4546 17.1817C49.6364 17.3635 49.6364 17.7272 49.4546 17.909L49.2728 18.0908C48.5455 18.7272 48.3637 19.7272 48.7273 20.6363C49.091 21.5454 49.9092 22.0908 50.9092 22.0908H51.1819C51.4546 22.0908 51.7273 22.3635 51.7273 22.6363V23.7272C51.7273 23.9999 51.4546 24.2726 51.1819 24.2726H50.9092C50.0001 24.2726 49.091 24.8181 48.7273 25.6363C48.3637 26.5454 48.5455 27.5454 49.1819 28.1817L49.3637 28.3636C49.5455 28.5454 49.5455 28.909 49.3637 29.0908L48.5455 29.8181C48.4546 29.909 48.2728 29.9999 48.1819 29.9999C48.0001 29.9999 47.9092 29.909 47.8182 29.8181C47.1819 29.0908 46.1819 28.909 45.2728 29.2726C44.3637 29.6363 43.8182 30.4545 43.8182 31.4545C43.8182 31.7272 43.5455 31.9999 43.2728 31.9999H42.1819C41.9092 31.9999 41.6364 31.7272 41.6364 31.4545V30.909C41.6364 29.909 41.091 29.0908 40.1819 28.7272C39.9092 28.6363 39.5455 28.5454 39.2728 28.5454C38.7273 28.5454 38.091 28.7272 37.6364 29.1817L37.2728 29.5454C37.091 29.7272 36.7273 29.7272 36.5455 29.5454L35.8182 28.7272C35.7273 28.6363 35.6364 28.4545 35.6364 28.3636C35.6364 28.2726 35.7273 28.0908 35.8182 27.9999L36.0001 27.8181C36.7273 27.1817 36.9092 26.1817 36.5455 25.2726C36.1819 24.3635 35.3637 23.8181 34.3637 23.8181H34.091C33.8182 23.8181 33.5455 23.5454 33.5455 23.2726V22.1817Z" fill="#F15F25"/>
<path d="M42.6364 27.3637C45.091 27.3637 47.091 25.3637 47.091 22.9091C47.091 20.4546 45.091 18.4546 42.6364 18.4546C40.1819 18.4546 38.1819 20.4546 38.1819 22.9091C38.1819 25.3637 40.1819 27.3637 42.6364 27.3637ZM42.6364 20.2728C44.091 20.2728 45.2728 21.4546 45.2728 22.9091C45.2728 24.3637 44.091 25.5455 42.6364 25.5455C41.1819 25.5455 40.0001 24.3637 40.0001 22.9091C40.0001 21.4546 41.2728 20.2728 42.6364 20.2728Z" fill="#F15F25"/>
<path d="M53.8182 3.27271H6.18188C3.45461 3.27271 1.18188 5.45452 1.18188 8.27271V44.6363C1.18188 47.3636 3.3637 49.6363 6.18188 49.6363H20.8182V55H18.6364C18.091 55 17.7273 55.3636 17.7273 55.9091C17.7273 56.4545 18.091 56.8182 18.6364 56.8182H21.7273H38.2728H41.3637C41.9092 56.8182 42.2728 56.4545 42.2728 55.9091C42.2728 55.3636 41.9092 55 41.3637 55H39.1819V49.6363H53.8182C56.5455 49.6363 58.8182 47.4545 58.8182 44.6363V8.27271C58.7273 5.45452 56.5455 3.27271 53.8182 3.27271ZM6.18188 5.09089H53.8182C55.5455 5.09089 57.0001 6.54543 57.0001 8.27271V38.7273H3.09098V8.27271C3.09098 6.45452 4.45461 5.09089 6.18188 5.09089ZM37.3637 54.9091H22.6364V49.5454H37.3637V54.9091ZM53.8182 47.7273C38.7273 47.7273 24.8182 47.7273 6.18188 47.7273C4.45461 47.7273 3.00007 46.2727 3.00007 44.5454V40.5454H56.9092V44.5454C56.9092 46.2727 55.5455 47.7273 53.8182 47.7273Z" fill="#F15F25"/>
<path d="M30 41.4546C28.4545 41.4546 27.2727 42.6364 27.2727 44.1819C27.2727 45.7273 28.4545 46.9091 30 46.9091C31.5454 46.9091 32.7273 45.7273 32.7273 44.1819C32.7273 42.6364 31.5454 41.4546 30 41.4546ZM30 45.091C29.4545 45.091 29.0909 44.7273 29.0909 44.1819C29.0909 43.6364 29.4545 43.2728 30 43.2728C30.5454 43.2728 30.9091 43.6364 30.9091 44.1819C30.9091 44.7273 30.5454 45.091 30 45.091Z" fill="#F15F25"/>
</svg>
