<svg width="60" height="60" viewBox="0 0 60 60" fill="none" xmlns="http://www.w3.org/2000/svg">
<path d="M50.2726 43.0913C49.7272 43.0913 49.3635 43.4549 49.3635 44.0004V44.4549C49.3635 45.0004 49.7272 45.364 50.2726 45.364C50.8181 45.364 51.1817 45.0004 51.1817 44.4549V44.0004C51.1817 43.4549 50.7272 43.0913 50.2726 43.0913Z" fill="white"/>
<path d="M41.9091 43.0913C41.3636 43.0913 41 43.4549 41 44.0004V44.4549C41 45.0004 41.3636 45.364 41.9091 45.364C42.4545 45.364 42.8182 45.0004 42.8182 44.4549V44.0004C42.8182 43.4549 42.4545 43.0913 41.9091 43.0913Z" fill="white"/>
<path d="M46.0909 43.0913C45.5454 43.0913 45.1818 43.4549 45.1818 44.0004V44.4549C45.1818 45.0004 45.5454 45.364 46.0909 45.364C46.6363 45.364 46.9999 45.0004 46.9999 44.4549V44.0004C46.9999 43.4549 46.5454 43.0913 46.0909 43.0913Z" fill="white"/>
<path d="M8.54544 31.0912H27.0909C27.6364 31.0912 28 30.7275 28 30.1821C28 29.6366 27.6364 29.273 27.0909 29.273H25.6364V15.6366C25.6364 15.0912 25.2727 14.7275 24.7273 14.7275C24.1818 14.7275 23.8182 15.0912 23.8182 15.6366V29.273H21V22.7275C21 22.1821 20.6364 21.8184 20.0909 21.8184C19.5454 21.8184 19.1818 22.1821 19.1818 22.7275V29.273H16.3636V15.6366C16.3636 15.0912 16 14.7275 15.4545 14.7275C14.9091 14.7275 14.5454 15.0912 14.5454 15.6366V29.273H11.8182V22.5457C11.8182 22.0003 11.4545 21.6366 10.9091 21.6366C10.3636 21.6366 9.99999 22.0003 9.99999 22.5457V29.273H8.54544C7.99999 29.273 7.63635 29.6366 7.63635 30.1821C7.63635 30.7275 7.99999 31.0912 8.54544 31.0912Z" fill="white"/>
<path d="M33.9999 25.6368H34.2727C34.6363 25.6368 34.7272 25.9095 34.7272 26.0004C34.7272 26.0913 34.8181 26.364 34.6363 26.5459L34.4545 26.7277C33.9999 27.1822 33.7272 27.7277 33.7272 28.364C33.7272 29.0004 33.909 29.5459 34.3636 30.0004L35.0908 30.8186C35.9999 31.7277 37.4545 31.8186 38.4545 30.9095L38.8181 30.5459C39.0908 30.364 39.2727 30.364 39.3636 30.4549C39.4545 30.4549 39.7272 30.6368 39.7272 30.9095V31.4549C39.7272 32.7277 40.8181 33.8186 42.0908 33.8186H43.1818C44.4545 33.8186 45.5454 32.7277 45.5454 31.4549C45.5454 31.0913 45.8181 31.0004 45.909 31.0004C45.9999 31.0004 46.2727 30.9095 46.4545 31.0913C46.909 31.5459 47.4545 31.8186 48.0909 31.8186C48.7272 31.8186 49.2727 31.6368 49.7272 31.1822L50.5454 30.4549C51.4545 29.5459 51.5454 28.0913 50.6363 27.0913L50.4545 26.9095C50.2727 26.6368 50.2727 26.4549 50.3636 26.364C50.3636 26.2731 50.5454 26.0913 50.8181 26.0913H51.0908C52.3636 26.0913 53.4545 25.0913 53.4545 23.8186V22.7277C53.4545 22.0913 53.2727 21.5459 52.8181 21.0913C52.3636 20.6368 51.8181 20.364 51.1818 20.364C51.0908 20.364 50.6363 20.4549 50.4545 20.0004C50.2727 19.5459 50.7272 19.364 50.8181 19.2731C51.7272 18.364 51.8181 16.9095 50.909 15.9095L50.1818 15.0913C49.7272 14.6368 49.1818 14.364 48.5454 14.364C47.909 14.364 47.3636 14.5459 46.909 15.0004L46.5454 15.364C46.2727 15.5459 46.0908 15.5459 45.9999 15.4549C45.909 15.4549 45.6363 15.2731 45.6363 15.0004V14.4549C45.6363 13.1822 44.5454 12.0913 43.2727 12.0913H42.1818C40.909 12.0913 39.8181 13.1822 39.8181 14.4549C39.8181 14.8186 39.5454 14.9095 39.4545 14.9095C39.3636 14.9095 39.0908 15.0004 38.909 14.8186C37.9999 13.9095 36.5454 13.8186 35.5454 14.7277L34.7272 15.4549C34.2727 15.9095 33.9999 16.4549 33.9999 17.0913C33.9999 17.7277 34.1818 18.2731 34.6363 18.7277L34.8181 18.9095C34.9999 19.1822 34.9999 19.364 34.909 19.4549C34.909 19.5459 34.7272 19.7277 34.4545 19.7277H34.1818C32.909 19.7277 31.8181 20.7277 31.8181 22.0004V23.0913C31.7272 24.5459 32.7272 25.5459 33.9999 25.6368ZM33.5454 22.1822C33.5454 21.9095 33.8181 21.6368 34.0908 21.6368H34.3636C35.2727 21.6368 36.1818 21.0913 36.5454 20.2731C36.909 19.4549 36.7272 18.364 36.0908 17.7277L35.909 17.5459C35.8181 17.4549 35.7272 17.2731 35.7272 17.1822C35.7272 17.0913 35.8181 16.9095 35.909 16.8186L36.7272 16.0913C36.909 15.9095 37.2727 15.9095 37.4545 16.0913C38.0908 16.8186 39.0908 17.0004 39.9999 16.6368C40.909 16.2731 41.4545 15.4549 41.4545 14.4549C41.4545 14.1822 41.7272 13.9095 41.9999 13.9095H43.0908C43.3636 13.9095 43.6363 14.1822 43.6363 14.4549V15.0004C43.6363 16.0004 44.1818 16.8186 45.0908 17.1822C45.9999 17.5459 46.909 17.364 47.6363 16.7277L47.9999 16.364C48.1818 16.1822 48.5454 16.1822 48.7272 16.364L49.4545 17.1822C49.6363 17.364 49.6363 17.7277 49.4545 17.9095L49.2727 18.0913C48.5454 18.7277 48.3636 19.7277 48.7272 20.6368C49.0908 21.5459 49.909 22.0913 50.909 22.0913H51.1818C51.4545 22.0913 51.7272 22.364 51.7272 22.6368V23.7277C51.7272 24.0004 51.4545 24.2731 51.1818 24.2731H50.909C49.9999 24.2731 49.0908 24.8186 48.7272 25.6368C48.3636 26.5459 48.5454 27.5459 49.1818 28.1822L49.3636 28.364C49.5454 28.5459 49.5454 28.9095 49.3636 29.0913L48.5454 29.8186C48.4545 29.9095 48.2727 30.0004 48.1818 30.0004C47.9999 30.0004 47.909 29.9095 47.8181 29.8186C47.1818 29.0913 46.1818 28.9095 45.2727 29.2731C44.3636 29.6368 43.8181 30.4549 43.8181 31.4549C43.8181 31.7277 43.5454 32.0004 43.2727 32.0004H42.1818C41.909 32.0004 41.6363 31.7277 41.6363 31.4549V30.9095C41.6363 29.9095 41.0908 29.0913 40.1818 28.7277C39.909 28.6368 39.5454 28.5459 39.2727 28.5459C38.7272 28.5459 38.0908 28.7277 37.6363 29.1822L37.2727 29.5459C37.0908 29.7277 36.7272 29.7277 36.5454 29.5459L35.8181 28.7277C35.7272 28.6368 35.6363 28.4549 35.6363 28.364C35.6363 28.2731 35.7272 28.0913 35.8181 28.0004L35.9999 27.8186C36.7272 27.1822 36.909 26.1822 36.5454 25.2731C36.1818 24.364 35.3636 23.8186 34.3636 23.8186H34.0908C33.8181 23.8186 33.5454 23.5459 33.5454 23.2731V22.1822Z" fill="white"/>
<path d="M42.6363 27.3637C45.0909 27.3637 47.0909 25.3637 47.0909 22.9091C47.0909 20.4546 45.0909 18.4546 42.6363 18.4546C40.1818 18.4546 38.1818 20.4546 38.1818 22.9091C38.1818 25.3637 40.1818 27.3637 42.6363 27.3637ZM42.6363 20.2728C44.0909 20.2728 45.2727 21.4546 45.2727 22.9091C45.2727 24.3637 44.0909 25.5455 42.6363 25.5455C41.1818 25.5455 39.9999 24.3637 39.9999 22.9091C39.9999 21.4546 41.2727 20.2728 42.6363 20.2728Z" fill="white"/>
<path d="M53.8181 3.27295H6.18176C3.45449 3.27295 1.18176 5.45477 1.18176 8.27295V44.6366C1.18176 47.3639 3.36358 49.6366 6.18176 49.6366H20.8181V55.0002H18.6363C18.0909 55.0002 17.7272 55.3639 17.7272 55.9093C17.7272 56.4548 18.0909 56.8184 18.6363 56.8184H21.7272H38.2727H41.3636C41.909 56.8184 42.2727 56.4548 42.2727 55.9093C42.2727 55.3639 41.909 55.0002 41.3636 55.0002H39.1818V49.6366H53.8181C56.5454 49.6366 58.8181 47.4548 58.8181 44.6366V8.27295C58.7272 5.45477 56.5454 3.27295 53.8181 3.27295ZM6.18176 5.09113H53.8181C55.5454 5.09113 56.9999 6.54568 56.9999 8.27295V38.7275H3.09085V8.27295C3.09085 6.45477 4.45449 5.09113 6.18176 5.09113ZM37.3636 54.9093H22.6363V49.5457H37.3636V54.9093ZM53.8181 47.7275C38.7272 47.7275 24.8181 47.7275 6.18176 47.7275C4.45449 47.7275 2.99994 46.273 2.99994 44.5457V40.5457H56.909V44.5457C56.909 46.273 55.5454 47.7275 53.8181 47.7275Z" fill="white"/>
<path d="M30 41.4546C28.4545 41.4546 27.2727 42.6364 27.2727 44.1819C27.2727 45.7273 28.4545 46.9091 30 46.9091C31.5454 46.9091 32.7273 45.7273 32.7273 44.1819C32.7273 42.6364 31.5454 41.4546 30 41.4546ZM30 45.091C29.4545 45.091 29.0909 44.7273 29.0909 44.1819C29.0909 43.6364 29.4545 43.2728 30 43.2728C30.5454 43.2728 30.9091 43.6364 30.9091 44.1819C30.9091 44.7273 30.5454 45.091 30 45.091Z" fill="white"/>
</svg>
