<svg width="44" height="47" viewBox="0 0 44 47" fill="none" xmlns="http://www.w3.org/2000/svg">
<g clip-path="url(#clip0_10_3735)">
<path fill-rule="evenodd" clip-rule="evenodd" d="M18.0576 37.3512V33.1827V26.6744V20.237C18.0576 18.1424 19.8264 16.4348 21.9893 16.4348C24.1552 16.4348 25.9393 18.1453 25.9393 20.237V26.6744V33.1827V37.3512V41.4873C24.6593 41.7827 23.3426 41.9422 21.9893 41.9422C20.6543 41.9422 19.3376 41.7857 18.0576 41.4873V37.3512Z" fill="#6754E9"/>
<path fill-rule="evenodd" clip-rule="evenodd" d="M8.67596 35.5728V33.1827V26.6744V20.237C8.67596 18.1424 10.4448 16.4348 12.6076 16.4348C14.7736 16.4348 16.5393 18.1453 16.5393 20.237V26.6744V33.1827V37.5433V41.05C14.1595 40.2642 11.9753 38.9554 10.1362 37.1769C9.61688 36.6718 9.12809 36.1311 8.67596 35.5728Z" fill="#8DBA12"/>
<path fill-rule="evenodd" clip-rule="evenodd" d="M27.4393 37.5433V33.1827V26.6744V20.237C27.4393 18.1424 29.2264 16.4348 31.3893 16.4348C33.5552 16.4348 35.321 18.1453 35.321 20.237V26.6744V33.1827V35.5728C34.8688 36.1311 34.3831 36.6718 33.8424 37.1769C32.0216 38.9554 29.8374 40.2642 27.4393 41.05V37.5433Z" fill="#F15F25"/>
<path fill-rule="evenodd" clip-rule="evenodd" d="M10.2462 14.6208L17.6971 5.35615C18.9955 5.93224 20.4588 6.26312 21.9893 6.26312C23.5412 6.26312 24.9831 5.93224 26.2998 5.35615L33.7507 14.6208C33.0298 14.3254 32.2172 14.1659 31.3862 14.1659C29.5105 14.1659 27.8334 14.9517 26.6969 16.2073C25.5422 14.9517 23.865 14.1659 21.9893 14.1659C20.1319 14.1659 18.4548 14.9517 17.3 16.2073C16.1636 14.9517 14.4864 14.1659 12.6107 14.1659C11.7798 14.1659 10.9671 14.3225 10.2462 14.6208Z" fill="#FECC8F"/>
<path fill-rule="evenodd" clip-rule="evenodd" d="M18.3112 4.58803L21.9924 0L25.6919 4.58803C24.5554 5.04299 23.3121 5.30297 21.9924 5.30297C20.691 5.30297 19.4476 5.04299 18.3112 4.58803Z" fill="#6C6D70"/>
<path d="M28.1419 5.28525C31.7498 6.29857 34.9788 8.18046 37.5602 10.6768C41.5469 14.5322 44 19.8529 44 25.7143C44 31.5933 41.5469 36.914 37.5602 40.7694C33.5736 44.6247 28.0717 46.997 21.9924 46.997C15.9314 46.997 10.4295 44.6247 6.44282 40.7694C2.4531 36.917 0 31.5933 0 25.7143C0 19.8529 2.4531 14.5322 6.43977 10.6768C9.02118 8.18342 12.2502 6.29857 15.8581 5.28525L10.1759 12.3342C9.81546 12.6296 9.4733 12.9458 9.1281 13.2766C5.82573 16.4525 3.7881 20.8662 3.7881 25.7143C3.7881 30.5829 5.82573 34.9789 9.1281 38.1696C12.4121 41.3632 16.9762 43.3337 21.9893 43.3337C27.0238 43.3337 31.5695 41.3632 34.8688 38.1696C38.1712 34.976 40.2088 30.58 40.2088 25.7143C40.2088 20.8633 38.1712 16.4496 34.8688 13.2766C34.5267 12.9458 34.1845 12.6326 33.821 12.3342L28.1419 5.28525Z" fill="#6754E9"/>
</g>
<defs>
<clipPath id="clip0_10_3735">
<rect width="44" height="47" fill="white"/>
</clipPath>
</defs>
</svg>
