<svg width="28" height="28" viewBox="0 0 28 28" fill="none" xmlns="http://www.w3.org/2000/svg">
<path d="M20.6711 3.55704C19.4608 2.56603 18.0456 1.85598 16.5276 1.47811C15.0097 1.10023 13.4268 1.06395 11.8931 1.37188C9.92112 1.77617 8.10692 2.7388 6.6666 4.1451C5.22628 5.55139 4.22056 7.34207 3.76925 9.30383C3.31794 11.2656 3.44005 13.3157 4.12104 15.21C4.80204 17.1044 6.01321 18.763 7.61028 19.9884C9.4337 21.323 10.9862 22.9927 12.1848 24.9082L13.0014 26.2662C13.1052 26.4387 13.2517 26.5814 13.4269 26.6805C13.6021 26.7796 13.8 26.8317 14.0013 26.8317C14.2026 26.8317 14.4004 26.7796 14.5756 26.6805C14.7508 26.5814 14.8974 26.4387 15.0011 26.2662L15.7839 24.9619C16.8277 23.1271 18.2508 21.5362 19.9583 20.2952C21.2971 19.374 22.4036 18.1543 23.1904 16.7324C23.9773 15.3104 24.4229 13.725 24.4921 12.1013C24.5613 10.4776 24.2523 8.86009 23.5894 7.37628C22.9265 5.89247 21.9279 4.58301 20.6723 3.55121L20.6711 3.55704ZM14.0001 16.3332C13.0771 16.3332 12.1749 16.0595 11.4074 15.5467C10.64 15.034 10.0419 14.3051 9.68867 13.4524C9.33546 12.5997 9.24305 11.6614 9.42311 10.7561C9.60318 9.85088 10.0476 9.01936 10.7003 8.36671C11.3529 7.71407 12.1844 7.26961 13.0897 7.08955C13.9949 6.90948 14.9332 7.0019 15.786 7.35511C16.6387 7.70831 17.3675 8.30645 17.8803 9.07388C18.3931 9.84131 18.6668 10.7436 18.6668 11.6665C18.6668 12.9042 18.1751 14.0912 17.2999 14.9664C16.4248 15.8415 15.2378 16.3332 14.0001 16.3332Z" fill="white"/>
</svg>
