<svg width="39" height="39" viewBox="0 0 39 39" fill="none" xmlns="http://www.w3.org/2000/svg">
<g clip-path="url(#clip0_58_277)">
<path d="M38.1874 22.75C38.1874 20.7874 37.0192 19.0962 35.3437 18.324V17.875C35.3437 9.13864 28.2363 2.03125 19.4999 2.03125C10.7636 2.03125 3.65619 9.13864 3.65619 17.875V18.324C1.98066 19.0962 0.812439 20.7874 0.812439 22.75C0.812439 25.438 2.99921 27.625 5.68744 27.625H7.31244C7.76114 27.625 8.12494 27.2612 8.12494 26.8125V18.6875C8.12494 18.2388 7.76114 17.875 7.31244 17.875H5.68744C5.55032 17.875 5.41548 17.8844 5.28119 17.8956V17.875C5.28119 10.0349 11.6598 3.65625 19.4999 3.65625C27.3401 3.65625 33.7187 10.0349 33.7187 17.875V17.8956C33.5844 17.8844 33.4496 17.875 33.3124 17.875H31.6874C31.2387 17.875 30.8749 18.2388 30.8749 18.6875V26.8125C30.8749 27.2612 31.2387 27.625 31.6874 27.625H33.3124C33.4496 27.625 33.5844 27.6156 33.7187 27.6044V28.8437C33.7187 31.5318 31.5319 33.7187 28.8437 33.7187H22.7499C22.7499 32.8227 22.0211 32.0937 21.1249 32.0937H17.0624C16.1662 32.0937 15.4374 32.8227 15.4374 33.7187V35.3437C15.4374 36.2398 16.1662 36.9687 17.0624 36.9687H21.1249C22.0211 36.9687 22.7499 36.2398 22.7499 35.3437H28.8437C32.4277 35.3437 35.3437 32.4278 35.3437 28.8437V27.176C37.0192 26.4038 38.1874 24.7126 38.1874 22.75ZM6.49994 19.5V26H5.68744C3.89542 26 2.43744 24.542 2.43744 22.75C2.43744 20.958 3.89542 19.5 5.68744 19.5H6.49994ZM17.0624 35.3437V33.7187H21.1249L21.1255 34.5254C21.1255 34.5274 21.1249 34.5292 21.1249 34.5312C21.1249 34.5333 21.1255 34.5352 21.1255 34.5372L21.1261 35.3437H17.0624ZM33.3124 26H32.4999V19.5H33.3124C35.1045 19.5 36.5624 20.958 36.5624 22.75C36.5624 24.542 35.1045 26 33.3124 26ZM19.4999 28.0312C24.4281 28.0312 28.4374 24.0219 28.4374 19.0937C28.4374 14.1656 24.4281 10.1562 19.4999 10.1562C14.5718 10.1562 10.5624 14.1656 10.5624 19.0937C10.5624 20.6882 10.9897 22.2465 11.8014 23.6218L10.9834 27.8779C10.9266 28.1735 11.0377 28.4762 11.2726 28.6648C11.4194 28.7827 11.5995 28.8437 11.7812 28.8437C11.8903 28.8437 11.9998 28.8219 12.1033 28.7773L15.7512 27.2027C16.9339 27.7527 18.1931 28.0312 19.4999 28.0312ZM12.869 26.6768L13.4566 23.6186C13.4958 23.4141 13.4554 23.2026 13.3431 23.0271C12.5869 21.8468 12.1874 20.4867 12.1874 19.0937C12.1874 15.0616 15.468 11.7812 19.4999 11.7812C23.5319 11.7812 26.8124 15.0616 26.8124 19.0937C26.8124 23.1259 23.5319 26.4062 19.4999 26.4062C18.3252 26.4062 17.1969 26.1305 16.1464 25.5868C15.9302 25.4747 15.6747 25.4654 15.4509 25.5624L12.869 26.6768ZM19.4999 21.5312H15.4374C14.9887 21.5312 14.6249 21.1674 14.6249 20.7187C14.6249 20.27 14.9887 19.9062 15.4374 19.9062H19.4999C19.9486 19.9062 20.3124 20.27 20.3124 20.7187C20.3124 21.1674 19.9486 21.5312 19.4999 21.5312ZM14.6249 17.4687C14.6249 17.02 14.9887 16.6562 15.4374 16.6562H23.5624C24.0111 16.6562 24.3749 17.02 24.3749 17.4687C24.3749 17.9174 24.0111 18.2812 23.5624 18.2812H15.4374C14.9887 18.2812 14.6249 17.9174 14.6249 17.4687Z" fill="#FFE800"/>
</g>
<defs>
<clipPath id="clip0_58_277">
<rect width="39" height="39" fill="white"/>
</clipPath>
</defs>
</svg>
