<svg width="27" height="27" viewBox="0 0 27 27" fill="none" xmlns="http://www.w3.org/2000/svg">
<path d="M25.4056 18.9C25.3339 18.8431 20.125 15.0885 18.6952 15.358C18.0127 15.4788 17.6225 15.9443 16.8394 16.8761C16.7134 17.0266 16.4106 17.3871 16.1753 17.6435C15.6803 17.4821 15.1976 17.2856 14.7306 17.0555C12.3205 15.8821 10.3731 13.9348 9.19975 11.5246C8.96951 11.0577 8.773 10.575 8.61175 10.08C8.869 9.84375 9.2295 9.541 9.3835 9.4115C10.311 8.63275 10.7774 8.2425 10.8981 7.55825C11.1458 6.14075 7.39375 0.896 7.35437 0.84875C7.18414 0.605562 6.96198 0.403255 6.70396 0.256465C6.44595 0.109676 6.15853 0.0220746 5.8625 0C4.34175 0 0 5.63237 0 6.58087C0 6.636 0.0796251 12.2395 6.9895 19.2684C14.0114 26.1704 19.614 26.25 19.6691 26.25C20.6185 26.25 26.25 21.9082 26.25 20.3875C26.2282 20.0925 26.1411 19.806 25.9951 19.5488C25.849 19.2916 25.6477 19.07 25.4056 18.9Z" fill="white"/>
</svg>
