<svg width="26" height="26" viewBox="0 0 26 26" fill="none" xmlns="http://www.w3.org/2000/svg">
<path d="M25.7069 0.293397C25.5712 0.15754 25.3993 0.063609 25.2117 0.0228239C25.0241 -0.0179613 24.8287 -0.00387621 24.6489 0.0633965L0.648898 9.0634C0.457523 9.13516 0.292733 9.26383 0.176717 9.4321C0.0607009 9.60037 -0.000969007 9.80015 1.15133e-05 10.0045C0.000992034 10.2089 0.0645758 10.4081 0.182201 10.5752C0.299826 10.7424 0.465844 10.8695 0.657898 10.9394L10.1829 14.4004L17.2929 7.2904C17.4815 7.10824 17.7341 7.00744 17.9963 7.00972C18.2585 7.012 18.5093 7.11717 18.6947 7.30258C18.8801 7.48799 18.9853 7.7388 18.9876 8.001C18.9899 8.26319 18.8891 8.51579 18.7069 8.7044L11.5969 15.8144L15.0599 25.3394C15.1296 25.5329 15.2573 25.7001 15.4255 25.8184C15.5937 25.9367 15.7943 26.0002 15.9999 26.0004C16.2035 26.0006 16.4023 25.9387 16.5697 25.8229C16.7371 25.7071 16.8652 25.5429 16.9369 25.3524L25.9369 1.3524C26.0044 1.17244 26.0186 0.976853 25.9778 0.78904C25.937 0.601227 25.8429 0.429147 25.7069 0.293397Z" fill="white"/>
</svg>
