<svg width="50" height="50" viewBox="0 0 50 50" fill="none" xmlns="http://www.w3.org/2000/svg">
<g clip-path="url(#clip0_128_827)">
<path d="M46.0938 24.0234H37.4626C37.796 23.4486 37.9883 22.7814 37.9883 22.0703V3.90625C37.9883 1.75247 36.2358 0 34.082 0H29.3945C28.8551 0 28.418 0.437164 28.418 0.976562C28.418 1.51596 28.8551 1.95312 29.3945 1.95312H34.082C35.1589 1.95312 36.0352 2.82936 36.0352 3.90625V22.0703C36.0352 23.1472 35.1589 24.0234 34.082 24.0234H15.918C14.8411 24.0234 13.9648 23.1472 13.9648 22.0703V3.90625C13.9648 2.82936 14.8411 1.95312 15.918 1.95312H20.6055C21.1449 1.95312 21.582 1.51596 21.582 0.976562C21.582 0.437164 21.1449 0 20.6055 0H15.918C13.7642 0 12.0117 1.75247 12.0117 3.90625V22.0703C12.0117 22.7814 12.2036 23.4486 12.5374 24.0234H3.90625C1.75247 24.0234 0 25.7759 0 27.9297V46.0938C0 48.2475 1.75247 50 3.90625 50H22.0703C23.2361 50 24.2836 49.4858 25 48.6732C25.7164 49.4858 26.7639 50 27.9297 50H46.0938C48.2475 50 50 48.2475 50 46.0938V27.9297C50 25.7759 48.2475 24.0234 46.0938 24.0234ZM22.0703 48.0469H3.90625C2.82936 48.0469 1.95312 47.1706 1.95312 46.0938V27.9297C1.95312 26.8528 2.82936 25.9766 3.90625 25.9766H22.0703C23.1472 25.9766 24.0234 26.8528 24.0234 27.9297V46.0938C24.0234 47.1706 23.1472 48.0469 22.0703 48.0469ZM48.0469 46.0938C48.0469 47.1706 47.1706 48.0469 46.0938 48.0469H27.9297C26.8528 48.0469 25.9766 47.1706 25.9766 46.0938V27.9297C25.9766 26.8528 26.8528 25.9766 27.9297 25.9766H46.0938C47.1706 25.9766 48.0469 26.8528 48.0469 27.9297V46.0938Z" fill="#F15F25"/>
<path d="M18.8477 30.1758H7.12891C6.58951 30.1758 6.15234 30.6129 6.15234 31.1523V42.8711C6.15234 43.4105 6.58951 43.8477 7.12891 43.8477H18.8477C19.3871 43.8477 19.8242 43.4105 19.8242 42.8711V31.1523C19.8242 30.6129 19.3871 30.1758 18.8477 30.1758ZM17.8711 41.8945H8.10547V32.1289H17.8711V41.8945Z" fill="#F15F25"/>
<path d="M37.0117 30.1758C33.2424 30.1758 30.1758 33.2424 30.1758 37.0117C30.1758 40.781 33.2424 43.8477 37.0117 43.8477C40.781 43.8477 43.8477 40.781 43.8477 37.0117C43.8477 33.2424 40.781 30.1758 37.0117 30.1758ZM37.0117 41.8945C34.3193 41.8945 32.1289 39.7041 32.1289 37.0117C32.1289 34.3193 34.3193 32.1289 37.0117 32.1289C39.7041 32.1289 41.8945 34.3193 41.8945 37.0117C41.8945 39.7041 39.7041 41.8945 37.0117 41.8945Z" fill="#F15F25"/>
<path d="M18.3098 19.3611C18.488 19.6487 18.8023 19.8242 19.1407 19.8242H30.8594C31.1978 19.8242 31.5121 19.6487 31.6903 19.3611C31.868 19.0731 31.8841 18.7138 31.733 18.4109L25.8736 6.69212C25.7081 6.36139 25.3701 6.15234 25.0001 6.15234C24.63 6.15234 24.292 6.36139 24.1265 6.69212L18.2671 18.4109C18.1161 18.7138 18.1321 19.0731 18.3098 19.3611ZM25.0001 9.31244L29.2794 17.8711H20.7207L25.0001 9.31244Z" fill="#F15F25"/>
<path d="M25.9766 0.976562C25.9766 1.51596 25.5394 1.95312 25 1.95312C24.4606 1.95312 24.0234 1.51596 24.0234 0.976562C24.0234 0.437164 24.4606 0 25 0C25.5394 0 25.9766 0.437164 25.9766 0.976562Z" fill="#F15F25"/>
</g>
<defs>
<clipPath id="clip0_128_827">
<rect width="50" height="50" fill="white"/>
</clipPath>
</defs>
</svg>
