<svg width="59" height="59" viewBox="0 0 59 59" fill="none" xmlns="http://www.w3.org/2000/svg">
<g clip-path="url(#clip0_169_40)">
<path d="M54.3906 28.3477H44.2059C44.5993 27.6693 44.8262 26.882 44.8262 26.043V4.60938C44.8262 2.06792 42.7583 0 40.2168 0H34.6855C34.0491 0 33.5332 0.515854 33.5332 1.15234C33.5332 1.78883 34.0491 2.30469 34.6855 2.30469H40.2168C41.4875 2.30469 42.5215 3.33865 42.5215 4.60938V26.043C42.5215 27.3137 41.4875 28.3477 40.2168 28.3477H18.7832C17.5125 28.3477 16.4785 27.3137 16.4785 26.043V4.60938C16.4785 3.33865 17.5125 2.30469 18.7832 2.30469H24.3145C24.9509 2.30469 25.4668 1.78883 25.4668 1.15234C25.4668 0.515854 24.9509 0 24.3145 0H18.7832C16.2417 0 14.1738 2.06792 14.1738 4.60938V26.043C14.1738 26.882 14.4002 27.6693 14.7941 28.3477H4.60938C2.06792 28.3477 0 30.4156 0 32.957V54.3906C0 56.9321 2.06792 59 4.60938 59H26.043C27.4186 59 28.6546 58.3932 29.5 57.4344C30.3454 58.3932 31.5814 59 32.957 59H54.3906C56.9321 59 59 56.9321 59 54.3906V32.957C59 30.4156 56.9321 28.3477 54.3906 28.3477ZM26.043 56.6953H4.60938C3.33865 56.6953 2.30469 55.6614 2.30469 54.3906V32.957C2.30469 31.6863 3.33865 30.6523 4.60938 30.6523H26.043C27.3137 30.6523 28.3477 31.6863 28.3477 32.957V54.3906C28.3477 55.6614 27.3137 56.6953 26.043 56.6953ZM56.6953 54.3906C56.6953 55.6614 55.6614 56.6953 54.3906 56.6953H32.957C31.6863 56.6953 30.6523 55.6614 30.6523 54.3906V32.957C30.6523 31.6863 31.6863 30.6523 32.957 30.6523H54.3906C55.6614 30.6523 56.6953 31.6863 56.6953 32.957V54.3906Z" fill="#F15F25"/>
<path d="M22.2402 35.6074H8.41211C7.77562 35.6074 7.25977 36.1233 7.25977 36.7598V50.5879C7.25977 51.2244 7.77562 51.7402 8.41211 51.7402H22.2402C22.8767 51.7402 23.3926 51.2244 23.3926 50.5879V36.7598C23.3926 36.1233 22.8767 35.6074 22.2402 35.6074ZM21.0879 49.4355H9.56445V37.9121H21.0879V49.4355Z" fill="#F15F25"/>
<path d="M43.6738 35.6074C39.2261 35.6074 35.6074 39.2261 35.6074 43.6738C35.6074 48.1216 39.2261 51.7402 43.6738 51.7402C48.1216 51.7402 51.7402 48.1216 51.7402 43.6738C51.7402 39.2261 48.1216 35.6074 43.6738 35.6074ZM43.6738 49.4355C40.4968 49.4355 37.9121 46.8509 37.9121 43.6738C37.9121 40.4968 40.4968 37.9121 43.6738 37.9121C46.8509 37.9121 49.4355 40.4968 49.4355 43.6738C49.4355 46.8509 46.8509 49.4355 43.6738 49.4355Z" fill="#F15F25"/>
<path d="M21.6055 22.8461C21.8157 23.1855 22.1866 23.3926 22.5859 23.3926H36.414C36.8133 23.3926 37.1842 23.1855 37.3944 22.8461C37.6041 22.5063 37.623 22.0822 37.4448 21.7248L30.5307 7.89671C30.3354 7.50644 29.9366 7.25977 29.4999 7.25977C29.0633 7.25977 28.6645 7.50644 28.4691 7.89671L21.5551 21.7248C21.3768 22.0822 21.3957 22.5063 21.6055 22.8461ZM29.4999 10.9887L34.5495 21.0879H24.4503L29.4999 10.9887Z" fill="#F15F25"/>
<path d="M30.6523 1.15234C30.6523 1.78883 30.1365 2.30469 29.5 2.30469C28.8635 2.30469 28.3477 1.78883 28.3477 1.15234C28.3477 0.515854 28.8635 0 29.5 0C30.1365 0 30.6523 0.515854 30.6523 1.15234Z" fill="#F15F25"/>
</g>
<defs>
<clipPath id="clip0_169_40">
<rect width="59" height="59" fill="white"/>
</clipPath>
</defs>
</svg>
