<svg width="59" height="59" viewBox="0 0 59 59" fill="none" xmlns="http://www.w3.org/2000/svg">
<path d="M40.9447 45.3786L37.4683 41.6534V37.313C40.0117 35.5122 41.9226 32.8745 42.7963 29.8043H43.1483V33.1247C43.1483 33.7611 43.6643 34.277 44.3006 34.277C44.9369 34.277 45.4529 33.7611 45.4529 33.1247V29.6572C47.4199 29.145 48.8761 27.354 48.8761 25.2289C48.8761 23.6366 48.0581 22.2324 46.8207 21.4125C46.821 21.3737 46.8214 18.1615 46.8214 18.1615C46.8214 12.4137 42.712 7.60825 37.2769 6.52717C36.9787 4.82535 36.1305 3.26641 34.8445 2.08346C33.384 0.739888 31.486 0 29.5002 0C27.5145 0 25.6165 0.739888 24.1559 2.08358C22.8699 3.26652 22.0217 4.82546 21.7234 6.52729C16.2885 7.60837 12.179 12.4138 12.179 18.1617C12.179 18.1617 12.1794 21.3738 12.1797 21.4126C10.9423 22.2325 10.1243 23.6367 10.1243 25.229C10.1243 27.3541 11.5805 29.1452 13.5475 29.6573V33.1248C13.5475 33.7612 14.0635 34.2771 14.6998 34.2771C15.3361 34.2771 15.8521 33.7612 15.8521 33.1248V29.8044H16.2041C17.0777 32.8746 18.9886 35.5122 21.5321 37.313V41.6534L18.0557 45.3786C12.4511 45.6317 7.96924 50.27 7.96924 55.9361V57.8452C7.96924 58.4816 8.48524 58.9975 9.12153 58.9975H24.3149C24.9512 58.9975 25.4672 58.4816 25.4672 57.8452C25.4672 57.2088 24.9512 56.6929 24.3149 56.6929H10.2738V55.9359C10.2738 51.4284 13.9017 47.7547 18.3907 47.6754L21.741 53.8543C21.9278 54.1987 22.2767 54.4247 22.6674 54.4541C22.6964 54.4563 22.7253 54.4573 22.7541 54.4573C23.1135 54.4573 23.4545 54.2892 23.6733 53.9999C24.4801 52.9324 27.0999 50.1621 29.5001 50.1621C31.8881 50.1621 34.5166 52.9333 35.327 53.9999C35.5457 54.2892 35.8867 54.4573 36.2462 54.4573C36.275 54.4573 36.3039 54.4563 36.333 54.4541C36.7236 54.4247 37.0725 54.1987 37.2593 53.8543L40.6096 47.6754C45.0986 47.7547 48.7264 51.4284 48.7264 55.9359V56.6929H34.6855C34.0492 56.6929 33.5332 57.2088 33.5332 57.8452C33.5332 58.4816 34.0492 58.9975 34.6855 58.9975H49.8789C50.5152 58.9975 51.0312 58.4816 51.0312 57.8452V55.9359C51.0311 50.27 46.5492 45.6317 40.9447 45.3786ZM44.3006 27.4999H43.2425C43.294 27.0157 43.3211 26.5242 43.3211 26.0266V22.9581H44.3006C45.5528 22.9581 46.5716 23.9768 46.5716 25.229C46.5716 26.4812 45.5528 27.4999 44.3006 27.4999ZM25.7162 3.77964C26.7503 2.82842 28.0941 2.30459 29.5002 2.30459C30.9065 2.30459 32.2503 2.82842 33.2843 3.77964C34.0347 4.46998 34.5741 5.34077 34.8593 6.29925H24.141C24.4263 5.34077 24.9657 4.46998 25.7162 3.77964ZM14.4836 18.1617C14.4836 12.8915 18.7713 8.60384 24.0414 8.60384H34.9589C40.229 8.60384 44.5167 12.8914 44.5167 18.1617V20.659C44.445 20.6557 42.2598 20.655 42.2477 20.6553C41.6666 20.5889 33.597 19.5597 30.5179 13.7586C30.318 13.3821 29.9264 13.1465 29.5001 13.1465C29.0737 13.1465 28.6821 13.3819 28.4823 13.7586C25.3035 19.7477 16.8055 20.6505 16.7215 20.6587C16.7201 20.6588 16.7188 20.6591 16.7175 20.6593C16.6792 20.6555 14.5553 20.6556 14.4836 20.6589V18.1617ZM14.6998 27.4999C13.4476 27.4999 12.4288 26.4811 12.4288 25.2289C12.4288 23.9767 13.4476 22.958 14.6998 22.958H15.6794V26.0265C15.6794 26.5242 15.7064 27.0155 15.7579 27.4997H14.6998V27.4999ZM17.9839 26.0266V22.8015C18.9597 22.6294 20.5231 22.2811 22.2599 21.6136C25.3728 20.4173 27.8414 18.6469 29.5001 16.4381C31.1589 18.6469 33.6275 20.4173 36.7403 21.6136C38.4772 22.2811 40.0407 22.6293 41.0163 22.8015V26.0266C41.0163 32.3767 35.8502 37.5428 29.5001 37.5428C23.1501 37.5428 17.9839 32.3767 17.9839 26.0266ZM22.9802 51.3046L20.2966 46.3553L21.9993 44.5306C22.5995 46.0177 23.7708 47.3401 25.4705 48.4295C25.6927 48.5719 25.9146 48.7043 26.1332 48.8271C24.8444 49.5414 23.7452 50.5205 22.9802 51.3046ZM29.4993 47.8047C28.2896 47.4076 23.8368 45.701 23.8368 42.1076V38.633C25.566 39.413 27.4833 39.8475 29.5003 39.8475C31.5172 39.8475 33.4345 39.413 35.1637 38.6331V42.1077C35.1637 43.7777 34.2107 45.2423 32.3308 46.4606C31.193 47.1981 30.0307 47.6293 29.4993 47.8047ZM36.0203 51.3046C35.2553 50.5204 34.1562 49.5413 32.8672 48.8271C33.0858 48.7044 33.3078 48.5719 33.5299 48.4295C35.2298 47.3401 36.4011 46.0177 37.0012 44.5306L38.6978 46.3487C38.6966 46.357 38.6951 46.3653 38.694 46.3736L36.0203 51.3046Z" fill="#6754E9"/>
<path d="M34.0158 29.7564C34.3345 29.2056 34.1462 28.5007 33.5954 28.182C33.0444 27.8633 32.3395 28.0516 32.0209 28.6024C31.5016 29.5001 30.5356 30.0578 29.5002 30.0578C28.4647 30.0578 27.4988 29.5001 26.9795 28.6025C26.6609 28.0518 25.9562 27.863 25.4051 28.182C24.8542 28.5006 24.666 29.2055 24.9847 29.7564C25.9145 31.3639 27.6447 32.3625 29.5003 32.3625C31.3555 32.3624 33.0859 31.3638 34.0158 29.7564Z" fill="#6754E9"/>
<path d="M30.5646 57.405C30.2764 56.6579 29.2376 56.4534 28.6852 57.0305C28.1763 57.515 28.2642 58.4282 28.8603 58.8027C29.8012 59.4304 30.9961 58.45 30.5646 57.405Z" fill="#6754E9"/>
</svg>
