<svg width="55" height="55" viewBox="0 0 55 55" fill="none" xmlns="http://www.w3.org/2000/svg">
<g clip-path="url(#clip0_178_88)">
<path d="M53.5313 33.6395L53.5284 33.5532C53.5 32.7111 53.1091 31.9229 52.4555 31.3909C51.802 30.8589 50.951 30.6357 50.1205 30.7787L40.3349 32.4639L50.4349 26.2181C52.7959 24.758 53.5997 21.7077 52.2649 19.2736C51.8784 18.5687 51.2379 18.0665 50.4612 17.859C49.6844 17.6519 48.8788 17.7679 48.1924 18.1862L38.94 23.8247L38.1932 23.4124L45.6193 14.7021C47.3719 12.6465 47.2485 9.53992 45.3383 7.62971L45.1416 7.433C44.5906 6.88196 43.8596 6.57931 43.0812 6.57931C43.0736 6.57931 43.066 6.57931 43.0584 6.57931C42.2715 6.58533 41.5363 6.89968 40.9883 7.46458L37.0756 11.4982C36.7658 11.8176 36.7735 12.3278 37.0929 12.6375C37.4123 12.9475 37.9225 12.9396 38.2323 12.6202L42.1449 8.58664C42.39 8.33406 42.7186 8.19343 43.0706 8.19074C43.4218 8.18913 43.7532 8.32364 44.0019 8.57246L44.1987 8.76918C45.5187 10.0892 45.604 12.236 44.3928 13.6565L36.7531 22.6172L33.3728 20.7506L32.0955 18.9467L35.5165 15.4199C35.8264 15.1005 35.8186 14.5903 35.4992 14.2805C35.1798 13.9707 34.6696 13.9784 34.3599 14.2978L31.1482 17.6088L30.8019 17.1197L35.5438 7.23639C36.7513 4.71959 35.772 1.71128 33.3137 0.387347L33.2423 0.3491C31.878 -0.385762 30.1777 0.0750306 29.3715 1.398C28.0296 3.60022 25.4509 7.81063 23.0201 11.6574C21.724 11.5088 20.3843 11.6216 19.078 12.0259C18.6529 12.1574 18.4148 12.6086 18.5463 13.0337C18.6778 13.459 19.1291 13.6968 19.5541 13.5654C22.8692 12.5401 26.444 13.7542 28.4498 16.5869L32.1643 21.8324C32.2345 21.9315 32.3261 22.0135 32.4324 22.0721L39.1498 25.7813C39.8504 26.1682 40.2129 26.9549 40.0514 27.7396L40.0413 27.7891C40.0055 27.9631 39.8887 28.052 39.8224 28.0895C39.756 28.127 39.6196 28.181 39.452 28.1218L31.5539 25.33C31.1903 25.2015 30.7862 25.3487 30.5907 25.6814C30.3952 26.014 30.463 26.4386 30.7522 26.6939L37.9007 33.0029C38.6259 33.643 38.7231 34.7381 38.1216 35.4958C38.0179 35.6266 37.8826 35.6572 37.8113 35.6637C37.7396 35.6705 37.6013 35.665 37.4754 35.5552L29.1565 28.3095C28.8582 28.0495 28.415 28.0449 28.1111 28.2985C27.8072 28.5521 27.7325 28.9889 27.9349 29.3291L33.6692 38.9664C34.1506 39.7755 33.9258 40.8354 33.1576 41.3793L33.0224 41.475C32.9237 41.545 32.8035 41.5719 32.6841 41.5506C32.5648 41.5293 32.4614 41.4625 32.3929 41.3626L25.4199 31.1904C25.1965 30.8646 24.77 30.7487 24.4125 30.9169C24.0551 31.0849 23.8721 31.4875 23.9805 31.8673L26.8819 42.0302C27.149 42.9657 26.6359 43.9416 25.7131 44.2523L25.668 44.2675C25.4419 44.3436 25.1958 44.2297 25.1079 44.0083C24.1919 41.7017 21.9259 36.0431 20.6709 33.3251L20.6586 33.2984C20.2366 32.3954 19.3924 31.7828 18.4004 31.6595C17.4017 31.5355 16.426 31.926 15.7905 32.7049L13.5804 35.4132C12.7475 36.4337 11.3591 36.8086 10.1258 36.3466C9.95656 36.2832 9.88952 36.1548 9.8647 36.084C9.84064 36.0154 9.81324 35.8785 9.90027 35.7324C10.7885 34.2408 13.022 30.9176 13.0445 30.8842C13.0639 30.8553 13.0814 30.8252 13.097 30.7941C14.3252 28.3303 14.6836 25.5458 14.1064 22.9536C13.4885 20.179 14.3994 17.2608 16.4834 15.3377C16.8104 15.0359 16.831 14.5261 16.5292 14.1991C16.2274 13.8721 15.7176 13.8516 15.3906 14.1533C14.7261 14.7665 14.1619 15.4643 13.7039 16.2202L11.5612 12.436C10.0131 9.70204 6.90023 8.26262 3.81456 8.85351C2.96624 9.01606 2.24116 9.53874 1.82538 10.2878C1.41293 11.0308 1.3518 11.9122 1.65767 12.7061C2.69056 15.3862 5.23679 21.0638 5.51871 21.6912C6.69717 25.6343 6.52226 29.8176 5.02504 33.477C3.9177 36.1833 3.59442 39.1451 4.08992 42.042C4.15706 42.4347 4.49785 42.7121 4.88322 42.712C4.92835 42.712 4.97411 42.7082 5.01999 42.7003C5.45865 42.6254 5.75335 42.2089 5.67836 41.7703C5.23368 39.1709 5.52354 36.5142 6.51646 34.0873C8.15948 30.0716 8.34771 25.4863 7.04655 21.1761C7.03645 21.1428 7.02421 21.1101 7.01002 21.0783C6.9822 21.0166 4.21626 14.8638 3.16135 12.1265C3.02759 11.7794 3.05413 11.3944 3.23419 11.07C3.41758 10.7397 3.73957 10.5087 4.11763 10.4364C6.52398 9.97557 8.95139 11.0981 10.1584 13.2298L12.8596 18.0003C12.266 19.6771 12.1346 21.5154 12.533 23.3039C13.0267 25.5204 12.7226 27.9066 11.6771 30.0291C11.3958 30.448 9.38017 33.4557 8.51531 34.9078C8.20675 35.426 8.14423 36.0493 8.34384 36.6178C8.54475 37.1901 8.98803 37.6412 9.56002 37.8555C11.441 38.5605 13.5585 37.9884 14.8287 36.432L17.0388 33.7236C17.3216 33.3772 17.7561 33.2033 18.2014 33.2586C18.6464 33.3139 19.0098 33.577 19.1986 33.9812L19.2059 33.997C20.4459 36.6825 22.6988 42.3086 23.6098 44.6029C23.9293 45.4072 24.7016 45.9028 25.5244 45.9027C25.7428 45.9027 25.9648 45.8677 26.1828 45.7944L26.228 45.7791C27.9672 45.1936 28.9351 43.3525 28.4314 41.5876L26.8884 36.183L31.0635 42.2736C31.378 42.7324 31.8529 43.039 32.4004 43.1369C32.9481 43.2348 33.4995 43.1117 33.9535 42.7902L34.0886 42.6945C35.538 41.6682 35.9621 39.6686 35.0539 38.1423L31.8933 32.8303L36.4169 36.7704C36.8453 37.1437 37.3929 37.32 37.9588 37.2685C38.5246 37.2165 39.0308 36.9426 39.3839 36.4976C39.9348 35.8035 40.1741 34.9595 40.1189 34.1364L50.3939 32.3671C50.7707 32.3023 51.1415 32.3993 51.438 32.6408C51.7344 32.8822 51.9048 33.2256 51.9177 33.6075L51.9206 33.6938C51.974 35.28 51.0029 36.6965 49.5041 37.2188L38.1457 41.1763C37.4934 41.4036 36.8903 41.782 36.4018 42.2705L29.3778 49.2945C26.7329 51.9394 23.2163 53.396 19.4759 53.396C15.7355 53.396 12.2191 51.9394 9.57409 49.2945C8.40551 48.126 7.46233 46.7769 6.77087 45.2847C6.58372 44.881 6.10466 44.7052 5.70103 44.8925C5.29728 45.0796 5.12162 45.5586 5.30878 45.9623C6.08006 47.6268 7.13175 49.1314 8.43463 50.4341C11.4787 53.4782 15.4774 55.0003 19.4759 55.0003C23.4745 55.0003 27.4731 53.4782 30.5172 50.4341L37.5412 43.4102C37.8591 43.0924 38.2514 42.8461 38.6759 42.6983L50.0342 38.7408C52.2032 37.9848 53.6085 35.9348 53.5313 33.6395ZM24.706 12.0055C27.0451 8.29324 29.4625 4.34572 30.7477 2.23664C31.108 1.64531 31.868 1.43947 32.4787 1.76833L32.55 1.80668C34.2485 2.72129 34.9252 4.80028 34.0908 6.53945L29.7359 15.6162C28.4677 13.8442 26.6865 12.6052 24.706 12.0055ZM38.915 29.6414C39.4766 29.8399 40.0962 29.7859 40.6147 29.4929C41.1334 29.2001 41.4998 28.6975 41.6199 28.1133L41.63 28.0638C41.887 26.8144 41.437 25.5632 40.4948 24.7643L49.0308 19.5624C49.3376 19.3754 49.6979 19.3234 50.0452 19.4162C50.3924 19.5089 50.6789 19.7336 50.8517 20.0488C51.7741 21.7308 51.2186 23.8387 49.5871 24.8476L38.714 31.5715L34.9319 28.2336L38.915 29.6414Z" fill="white"/>
</g>
<defs>
<clipPath id="clip0_178_88">
<rect width="55" height="55" fill="white"/>
</clipPath>
</defs>
</svg>
