<svg width="55" height="55" viewBox="0 0 55 55" fill="none" xmlns="http://www.w3.org/2000/svg">
<g clip-path="url(#clip0_178_98)">
<path d="M12.8273 29.1938C12.8273 28.7489 12.4666 28.3882 12.0217 28.3882H6.70215C5.0732 28.3882 3.74805 29.7133 3.74805 31.3423V36.141C3.74805 36.586 4.10877 36.9467 4.55371 36.9467C4.99865 36.9467 5.35938 36.586 5.35938 36.141V31.3423C5.35938 30.6018 5.96169 29.9995 6.70215 29.9995H12.0217C12.4666 29.9995 12.8273 29.6388 12.8273 29.1938Z" fill="white"/>
<path d="M52.046 28.3882H46.488C46.043 28.3882 45.6823 28.7489 45.6823 29.1938C45.6823 29.6388 46.043 29.9995 46.488 29.9995H52.046C52.7865 29.9995 53.3888 30.6018 53.3888 31.3423V52.0459C53.3888 52.7864 52.7865 53.3887 52.046 53.3887H6.70215C5.96169 53.3887 5.35938 52.7864 5.35938 52.0459V40.2403C5.35938 39.7953 4.99865 39.4346 4.55371 39.4346C4.10877 39.4346 3.74805 39.7953 3.74805 40.2403V52.0459C3.74805 53.6749 5.0732 55 6.70215 55H52.046C53.6749 55 55.0001 53.6749 55.0001 52.0459V31.3423C55.0001 29.7133 53.6749 28.3882 52.046 28.3882Z" fill="white"/>
<path d="M13.5549 19.1463L9.26933 21.6359C8.70687 21.9627 8.44272 22.6041 8.6118 23.2321C8.78099 23.8602 9.33163 24.2821 9.98207 24.2821H15.0883V43.8432H11.6959C11.2509 43.8432 10.8902 44.2039 10.8902 44.6488C10.8902 45.0938 11.2509 45.4545 11.6959 45.4545H47.0523C47.4972 45.4545 47.858 45.0938 47.858 44.6488C47.858 44.2039 47.4972 43.8432 47.0523 43.8432H43.6598V24.2821H48.766C49.4164 24.2821 49.9671 23.8601 50.1363 23.2321C50.3055 22.6041 50.0413 21.9626 49.4788 21.6359L37.338 14.5833C36.9532 14.3598 36.4602 14.4905 36.2367 14.8752C36.0132 15.26 36.1439 15.7531 36.5287 15.9765L48.0525 22.6707H43.0675L30.3633 15.4372C29.7422 15.0835 28.9708 15.084 28.35 15.4382L24.1776 17.8201V14.839L29.1625 11.9433C29.2929 11.8674 29.4551 11.8673 29.5857 11.9433L33.3776 14.1461C33.7621 14.3694 34.2553 14.2389 34.4789 13.8541C34.7024 13.4693 34.5717 12.9763 34.1869 12.7528L30.3949 10.5499C29.7651 10.184 28.9827 10.1841 28.353 10.5499L24.1774 12.9755V3.82486C24.1774 1.71585 22.4668 0 20.364 0H3.81348C1.71069 0 0 1.71585 0 3.82486V15.3214C0 17.4304 1.71069 19.1462 3.81348 19.1462H13.5549V19.1463ZM10.6956 22.6707L16.7626 19.1462H18.0664C18.5987 19.1462 19.1128 19.3399 19.514 19.6917L20.06 20.1704L15.6799 22.6707H10.6956ZM32.5435 43.8432H26.2045V35.45C26.2045 35.3019 26.325 35.1814 26.473 35.1814H32.2748C32.4228 35.1814 32.5434 35.3019 32.5434 35.45V43.8432H32.5435ZM23.3889 22.0405C23.8753 21.8201 24.1773 21.3514 24.1773 20.8174V19.6756L29.1487 16.8377C29.2773 16.7644 29.4371 16.7642 29.5659 16.8375L42.0484 23.9449V43.8432H34.1548V35.45C34.1548 34.4135 33.3114 33.5701 32.2749 33.5701H26.473C25.4365 33.5701 24.5932 34.4135 24.5932 35.45V43.8432H16.6995V23.9442L21.3417 21.2942L21.9494 21.8271C22.2015 22.0481 22.5129 22.1626 22.83 22.1626C23.0179 22.1626 23.208 22.1225 23.3889 22.0405ZM1.61133 15.3215V3.82486C1.61133 2.60434 2.59918 1.61133 3.81348 1.61133H20.364C21.5783 1.61133 22.5661 2.60434 22.5661 3.82486V20.2247L20.5764 18.4802C19.8812 17.8707 18.9898 17.535 18.0665 17.535H3.81348C2.59918 17.535 1.61133 16.542 1.61133 15.3215Z" fill="white"/>
<path d="M12.0866 15.3063C13.6154 15.3063 15.1444 14.7851 16.3918 13.7426L20.6416 10.1913C20.8249 10.0382 20.9307 9.81175 20.9307 9.57306C20.9307 9.33436 20.8249 9.10792 20.6416 8.95484L16.3918 5.40348C13.8961 3.31788 10.2739 3.31874 7.77936 5.40541L3.53533 8.95517C3.35228 9.10824 3.24658 9.33458 3.24658 9.57316C3.24658 9.81175 3.35228 10.0381 3.53533 10.1912L7.77925 13.7408C9.02706 14.7845 10.5567 15.3064 12.0866 15.3063ZM8.81297 6.64162C8.81308 6.64162 8.81308 6.64162 8.81297 6.64162C10.7091 5.05586 13.4619 5.05522 15.3585 6.64012L18.8684 9.57316L15.3585 12.5062C13.4615 14.0913 10.7087 14.0905 8.81297 12.5048L5.30801 9.57316L8.81297 6.64162Z" fill="white"/>
<path d="M12.0889 12.2361C13.5571 12.2361 14.7516 11.0416 14.7516 9.57331C14.7516 8.10518 13.5571 6.91064 12.0889 6.91064C10.6208 6.91064 9.42627 8.10518 9.42627 9.57342C9.42627 11.0416 10.6208 12.2361 12.0889 12.2361ZM12.0889 8.52197C12.6686 8.52197 13.1403 8.99366 13.1403 9.57342C13.1403 10.1531 12.6686 10.6248 12.0889 10.6248C11.5093 10.6248 11.0376 10.1531 11.0376 9.57331C11.0376 8.99366 11.5093 8.52197 12.0889 8.52197Z" fill="white"/>
</g>
<defs>
<clipPath id="clip0_178_98">
<rect width="55" height="55" fill="white"/>
</clipPath>
</defs>
</svg>
