<svg width="55" height="55" viewBox="0 0 55 55" fill="none" xmlns="http://www.w3.org/2000/svg">
<g clip-path="url(#clip0_178_116)">
<path d="M43.3771 35.9325L40.1492 34.9848L33.1264 30.3977V29.3467C35.1597 27.8131 36.5559 25.4688 36.8155 22.7816C37.8352 22.6175 38.6165 21.7314 38.6165 20.6662V17.776C38.6165 17.7648 38.6153 17.7539 38.6148 17.7427V14.0815C39.021 13.7906 39.2789 13.3168 39.2789 12.7853V9.43478L44.1254 8.60925C44.9219 8.47357 45.4947 7.84096 45.551 7.03498C45.6071 6.22899 45.1277 5.52302 44.3578 5.2782L28.0192 0.0813452C27.6783 -0.0271509 27.3182 -0.0270435 26.9774 0.0812378L10.6387 5.2782C9.86878 5.52302 9.38925 6.22899 9.44543 7.03487C9.48109 7.54695 9.7258 7.98845 10.1035 8.27763V12.6591H10.0635C9.14347 12.6591 8.39495 13.4076 8.39495 14.3276V16.5025L7.31783 22.8245C7.13167 23.9179 7.97386 24.9188 9.08567 24.9188H12.7325C13.8419 24.9188 14.687 23.9203 14.5004 22.8244L13.4233 16.5025V14.3276C13.4233 13.4076 12.6747 12.6591 11.7547 12.6591H11.7148V8.75287L15.721 9.43521V12.7853C15.721 13.3145 15.9776 13.7876 16.382 14.079L16.3835 17.7763V20.6662C16.3835 21.7315 17.1648 22.6175 18.1845 22.7816C18.4439 25.4673 19.8387 27.8105 21.8701 29.3442V30.4002L14.8488 34.9864L11.6234 35.9331C8.17205 36.9461 5.73508 40.1147 5.73508 43.798V46.1991C5.73508 46.644 6.09569 47.0047 6.54074 47.0047C6.98579 47.0047 7.34641 46.6441 7.34641 46.1991V43.798C7.34641 40.895 9.29171 38.2966 12.0773 37.4791L15.0825 36.5969L27.0886 43.7311C27.3324 43.876 27.6548 43.8837 27.9117 43.7311L39.9185 36.5965L42.9235 37.4787C45.7086 38.2964 47.6539 40.8947 47.6539 43.7974V51.5789C47.6539 52.5769 46.8419 53.3889 45.8438 53.3889H42.2928V49.9162C42.2928 49.4712 41.9322 49.1105 41.4871 49.1105C41.0422 49.1105 40.6815 49.4711 40.6815 49.9162V53.3889H14.315V49.9162C14.315 49.4712 13.9544 49.1105 13.5093 49.1105C13.0643 49.1105 12.7036 49.4711 12.7036 49.9162V53.3889H9.15625C8.15819 53.3889 7.34619 52.5769 7.34619 51.5789V49.9652C7.34619 49.5202 6.98558 49.1595 6.54053 49.1595C6.09548 49.1595 5.73486 49.5201 5.73486 49.9652V51.5787C5.73486 53.4653 7.2696 55 9.15614 55H45.8436C47.7302 55 49.2649 53.4653 49.2649 51.5787V43.7973C49.2649 40.2008 46.9111 36.9701 43.3771 35.9325ZM12.7324 23.3075H9.08567C8.97299 23.3075 8.88705 23.2068 8.90617 23.095L9.88049 17.3763H11.9376L12.9119 23.0949C12.9309 23.2065 12.8457 23.3075 12.7324 23.3075ZM11.8119 14.3276V15.765H10.0061V14.3276C10.0061 14.2959 10.0317 14.2703 10.0634 14.2703H11.7545C11.7863 14.2702 11.8119 14.2959 11.8119 14.3276ZM24.6186 40.0868L24.9392 40.5796L16.714 35.6922L21.9348 32.2821C22.1716 35.0601 23.0873 37.7332 24.6186 40.0868ZM24.613 36.609C26.5093 36.8784 28.4895 36.8786 30.3869 36.609C30.0203 37.5111 29.5685 38.3816 29.0308 39.2082L27.4999 41.5611L25.9691 39.2082C25.4314 38.3816 24.9796 37.5111 24.613 36.609ZM30.3813 40.0868C31.9126 37.7332 32.8283 35.0601 33.0649 32.2821L38.2857 35.6921L30.0607 40.5796L30.3813 40.0868ZM35.094 14.3816H37.0035V16.9702H36.0558C35.5254 16.9702 35.0939 16.5388 35.0939 16.0085V14.3816H35.094ZM11.127 6.81369L27.466 1.61662C27.4869 1.60996 27.5095 1.60985 27.5308 1.61673L43.8696 6.81369C43.9034 6.82443 43.9497 6.83904 43.9438 6.92294C43.9378 7.00673 43.89 7.01478 43.855 7.0208L38.453 7.94087L36.4249 7.69004C35.9836 7.63536 35.5812 7.94925 35.5265 8.39075C35.4719 8.83236 35.7857 9.23455 36.2272 9.28912L37.6677 9.46733V12.7703L17.3322 12.7696V9.46722L25.6689 8.43565C26.8832 8.28558 28.1143 8.28558 29.3277 8.43565L32.483 8.82592C32.9245 8.88059 33.3268 8.56681 33.3815 8.12531C33.4362 7.6837 33.1224 7.28151 32.6809 7.22683L29.5256 6.83657C28.181 6.67017 26.8167 6.67017 25.4712 6.83657L16.545 7.94108L11.1414 7.0208C11.1064 7.01478 11.0586 7.00673 11.0527 6.92294C11.0469 6.83904 11.0932 6.82432 11.127 6.81369ZM17.9943 16.9702L17.9932 14.3816H19.9059V16.0086C19.9059 16.5388 19.4744 16.9703 18.944 16.9703L17.9943 16.9702ZM19.7675 22.3675C19.726 21.7115 19.1808 21.1976 18.5262 21.1976C18.2331 21.1976 17.9946 20.9591 17.9946 20.6661V18.5815H18.944C20.3627 18.5815 21.5171 17.4273 21.5171 16.0086V14.3816H33.4827V16.0086C33.4827 17.4273 34.637 18.5815 36.0558 18.5815H37.0052V20.6661C37.0052 20.9591 36.7667 21.1976 36.4735 21.1976C35.819 21.1976 35.2737 21.7115 35.2323 22.3676C34.9756 26.4356 31.5792 29.6223 27.4998 29.6223C23.4205 29.6223 20.0241 26.4356 19.7675 22.3675ZM27.4999 31.2335C28.9328 31.2335 30.2947 30.9058 31.5151 30.3233V30.8339C31.5151 32.2113 31.3293 33.5701 30.9715 34.8807C28.782 35.2981 26.3067 35.315 24.0284 34.8807C23.6706 33.5702 23.4847 32.2114 23.4847 30.8339C23.4847 30.8168 23.4824 30.8001 23.4813 30.7833C23.4811 30.7799 23.4814 30.7766 23.4812 30.7733V30.3217C24.7025 30.9052 26.0656 31.2335 27.4999 31.2335Z" fill="white"/>
</g>
<defs>
<clipPath id="clip0_178_116">
<rect width="55" height="55" fill="white"/>
</clipPath>
</defs>
</svg>
