<svg width="55" height="55" viewBox="0 0 55 55" fill="none" xmlns="http://www.w3.org/2000/svg">
<path d="M52.583 50.8643H16.9906C15.6579 50.8643 14.5736 49.7799 14.5736 48.4473V31.5283H2.41699C1.08432 31.5283 0 30.444 0 29.1113V6.55273C0 5.22006 1.08432 4.13574 2.41699 4.13574H38.0094C39.3421 4.13574 40.4264 5.22006 40.4264 6.55273V21.0547C40.4264 21.4997 40.0658 21.8604 39.6207 21.8604C39.1757 21.8604 38.8151 21.4997 38.8151 21.0547V6.55273C38.8151 6.10844 38.4537 5.74707 38.0094 5.74707H2.41699C1.9727 5.74707 1.61133 6.10844 1.61133 6.55273V29.1113C1.61133 29.5556 1.9727 29.917 2.41699 29.917H14.5736V25.8887C14.5736 24.556 15.6579 23.4717 16.9906 23.4717H52.583C53.9157 23.4717 55 24.556 55 25.8887V42.002C55 42.447 54.6394 42.8076 54.1943 42.8076C53.7493 42.8076 53.3887 42.447 53.3887 42.002V25.8887C53.3887 25.4444 53.0273 25.083 52.583 25.083H16.9906C16.5463 25.083 16.1849 25.4444 16.1849 25.8887V48.4473C16.1849 48.8916 16.5463 49.2529 16.9906 49.2529H52.583C53.0273 49.2529 53.3887 48.8916 53.3887 48.4473V45.2246C53.3887 44.7796 53.7493 44.4189 54.1943 44.4189C54.6394 44.4189 55 44.7796 55 45.2246V48.4473C55 49.7799 53.9157 50.8643 52.583 50.8643ZM41.2321 46.0303H28.3414C27.8964 46.0303 27.5358 45.6697 27.5358 45.2246C27.5358 44.7796 27.8964 44.4189 28.3414 44.4189H41.2321C41.6771 44.4189 42.0377 44.7796 42.0377 45.2246C42.0377 45.6697 41.6771 46.0303 41.2321 46.0303ZM31.0241 41.199C30.7532 41.199 30.5314 41.1261 30.3378 40.9855C29.7709 40.5737 29.6655 39.7297 29.9493 37.871C30.0426 37.2602 30.1603 36.674 30.2447 36.2812C29.9489 36.0238 29.5184 35.6388 29.0933 35.2204C27.7945 33.9422 27.3725 33.1859 27.588 32.5229C27.8103 31.8384 28.599 31.5016 30.4977 31.2801C31.0972 31.2101 31.6819 31.1689 32.0868 31.1458C32.2338 30.7679 32.4538 30.2246 32.7056 29.6759C33.5031 27.9386 34.0671 27.2927 34.7868 27.2927C35.5065 27.2927 36.0705 27.9386 36.868 29.6759C37.1198 30.2245 37.3398 30.7679 37.4868 31.1458C37.8917 31.1689 38.4763 31.2101 39.0758 31.2801C40.9746 31.5017 41.7632 31.8384 41.9855 32.5229C42.201 33.1859 41.7789 33.9422 40.4802 35.2204C40.0551 35.6388 39.6246 36.0238 39.3288 36.2812C39.4132 36.674 39.5309 37.2602 39.6242 37.871C39.908 39.7296 39.8027 40.5737 39.2359 40.9855C38.6535 41.4084 37.8177 41.2176 36.1512 40.2806C35.6251 39.9849 35.1278 39.6745 34.7868 39.4552C34.4457 39.6745 33.9484 39.9848 33.4223 40.2806C32.3101 40.9059 31.5679 41.199 31.0241 41.199ZM34.7868 37.6856C34.9447 37.6856 35.1026 37.7319 35.2391 37.8245C36.324 38.5605 37.5221 39.2314 38.1662 39.4815C38.1596 38.7922 37.9564 37.4399 37.6529 36.171C37.5813 35.8724 37.6861 35.5588 37.9227 35.363C38.8859 34.5654 39.8202 33.6438 40.2299 33.1092C39.5594 32.9334 38.2001 32.7728 36.8944 32.731C36.5646 32.7204 36.2744 32.5096 36.1624 32.1992C35.7246 30.9865 35.1612 29.7602 34.7869 29.1674C34.4123 29.7602 33.8488 30.9866 33.4115 32.1992C33.2995 32.5096 33.0093 32.7205 32.6796 32.731C31.3735 32.7731 30.0143 32.9337 29.3439 33.1092C29.7535 33.6439 30.6879 34.5655 31.651 35.3629C31.8875 35.5587 31.9923 35.8721 31.9208 36.1708C31.6176 37.44 31.4143 38.7922 31.4077 39.4814C32.0517 39.2312 33.2499 38.5604 34.3346 37.8244C34.4709 37.7319 34.6288 37.6856 34.7868 37.6856ZM17.5277 21.8604H7.25098C6.80593 21.8604 6.44531 21.4997 6.44531 21.0547C6.44531 20.6096 6.80593 20.249 7.25098 20.249H17.5277C17.9728 20.249 18.3334 20.6096 18.3334 21.0547C18.3334 21.4997 17.9728 21.8604 17.5277 21.8604ZM25.0472 17.0264H7.25098C6.80593 17.0264 6.44531 16.6658 6.44531 16.2207C6.44531 15.7757 6.80593 15.415 7.25098 15.415H25.0472C25.4923 15.415 25.8529 15.7757 25.8529 16.2207C25.8529 16.6658 25.4923 17.0264 25.0472 17.0264ZM25.0472 12.1924H7.25098C6.80593 12.1924 6.44531 11.8318 6.44531 11.3867C6.44531 10.9417 6.80593 10.5811 7.25098 10.5811H25.0472C25.4923 10.5811 25.8529 10.9417 25.8529 11.3867C25.8529 11.8318 25.4923 12.1924 25.0472 12.1924Z" fill="white"/>
</svg>
