<svg width="42" height="46" viewBox="0 0 42 46" fill="none" xmlns="http://www.w3.org/2000/svg">
<path d="M22.739 22.9103C22.316 22.6513 21.7629 22.7844 21.5037 23.2076C21.4037 23.3711 21.0705 23.5448 20.6501 23.5448C20.2388 23.5448 19.9126 23.3804 19.8031 23.218C19.5255 22.8066 18.9671 22.6981 18.5558 22.9755C18.1444 23.253 18.0359 23.8114 18.3133 24.2228C18.7789 24.913 19.6742 25.3417 20.6501 25.3417C21.6703 25.3417 22.5847 24.8834 23.0363 24.1457C23.2954 23.7225 23.1623 23.1695 22.739 22.9103Z" fill="white"/>
<path d="M26.3965 20.4417L26.396 20.4421C25.7766 20.8549 25.6096 21.6915 26.0225 22.3108C26.2822 22.7003 26.7095 22.9109 27.145 22.9109C27.402 22.9109 27.6618 22.8376 27.8916 22.6844C28.511 22.2716 28.6783 21.4349 28.2654 20.8156C27.8525 20.1963 27.0157 20.029 26.3965 20.4417Z" fill="white"/>
<path d="M13.4371 20.4417L13.4365 20.4421C12.8171 20.8549 12.6501 21.6915 13.0631 22.3108C13.3227 22.7003 13.75 22.9109 14.1856 22.9109C14.4425 22.9109 14.7023 22.8376 14.9322 22.6844C15.5515 22.2716 15.7188 21.4349 15.3059 20.8156C14.893 20.1963 14.0563 20.029 13.4371 20.4417Z" fill="white"/>
<path d="M38.7386 16.3323V15.2329C38.7386 11.18 37.1496 7.35891 34.2645 4.47385C31.3794 1.58888 27.5585 0 23.5056 0H17.8225C14.1868 0 10.6604 1.3154 7.89285 3.70398C7.51712 4.02814 7.47544 4.5955 7.79968 4.97113C8.12375 5.34677 8.6912 5.38864 9.06683 5.0643C11.5082 2.95729 14.6178 1.79687 17.8225 1.79687H23.5057C30.9144 1.79687 36.9418 7.82421 36.9418 15.2329V15.9471H34.6185C30.3882 15.9471 27.4401 14.0532 27.4401 12.3534C27.4401 11.8573 27.0378 11.455 26.5417 11.455C26.0456 11.455 25.6432 11.8573 25.6432 12.3534C25.6432 14.0532 22.6952 15.9471 18.4648 15.9471H4.38643V15.2329C4.38643 13.9443 4.57196 12.6664 4.93789 11.4346C5.07913 10.9589 4.80816 10.4588 4.33253 10.3175C3.85663 10.176 3.35665 10.4473 3.21541 10.9228C2.80015 12.3209 2.58956 13.771 2.58956 15.2329V16.3323C1.06429 17.0199 0 18.5548 0 20.3335C0 22.7522 1.96766 24.7198 4.38634 24.7198H6.07945C7.05515 27.1592 8.76334 29.2857 10.9633 30.8823C8.69533 33.327 7.4121 36.5547 7.4121 39.887V45.1016C7.4121 45.5977 7.81441 46 8.31053 46H33.0175C33.5136 46 33.916 45.5977 33.916 45.1016V39.887C33.916 36.5547 32.6327 33.3268 30.3648 30.8823C32.5648 29.2857 34.2729 27.1593 35.2486 24.7198H36.9417C39.3604 24.7198 41.328 22.7522 41.328 20.3335C41.328 18.5548 40.2639 17.0199 38.7386 16.3323ZM4.38643 22.923C2.95855 22.923 1.79687 21.7614 1.79687 20.3335C1.79687 18.9056 2.95855 17.744 4.38634 17.744H5.16601V19.9901C5.16601 20.9958 5.28451 21.977 5.50939 22.923H4.38643ZM9.20897 41.957H12.5781V44.2031H9.20897V41.957ZM28.7499 44.2031V41.957H32.1191V44.2031H28.7499ZM32.1191 39.887V40.1602H28.7499V38.9711C28.7499 38.475 28.3476 38.0727 27.8515 38.0727C27.3554 38.0727 26.9531 38.475 26.9531 38.9711V44.2031H14.375V38.9711C14.375 38.475 13.9727 38.0727 13.4765 38.0727C12.9804 38.0727 12.5781 38.475 12.5781 38.9711V40.1602H9.20897V39.887C9.20897 36.8999 10.404 34.0088 12.5055 31.8688C13.6525 32.5117 14.8988 33.0234 16.2186 33.3804C16.2847 35.7753 18.2534 37.7032 20.664 37.7032C23.0746 37.7032 25.0434 35.7754 25.1095 33.3804C26.4293 33.0234 27.6756 32.5117 28.8225 31.8688C30.9241 34.0087 32.1191 36.8998 32.1191 39.887ZM18.0637 33.7694C18.9094 33.8988 19.7782 33.9663 20.6641 33.9663C21.5501 33.9663 22.4188 33.8988 23.2645 33.7694C23.0248 34.9859 21.95 35.9063 20.6641 35.9063C19.3783 35.9063 18.3034 34.9859 18.0637 33.7694ZM20.664 32.1694C13.1092 32.1694 6.96288 26.7058 6.96288 19.9901V17.744H18.4647C22.06 17.744 25.099 16.5356 26.5416 14.7434C27.9502 16.4934 30.8809 17.6867 34.3651 17.742L34.3652 19.9901C34.3652 26.7057 28.2189 32.1694 20.664 32.1694ZM36.9417 22.923H35.8187C36.0435 21.977 36.162 20.9958 36.162 19.9901L36.1619 17.744H36.9416C38.3695 17.744 39.5311 18.9057 39.5311 20.3335C39.5311 21.7613 38.3696 22.923 36.9417 22.923Z" fill="white"/>
<path d="M22.9102 39.9658H18.418C17.9219 39.9658 17.5195 40.3681 17.5195 40.8643C17.5195 41.3604 17.9219 41.7627 18.418 41.7627H22.9102C23.4063 41.7627 23.8086 41.3604 23.8086 40.8643C23.8086 40.3681 23.4064 39.9658 22.9102 39.9658Z" fill="white"/>
<path d="M5.77371 8.38903C5.8109 8.38903 5.84846 8.38679 5.88628 8.38203C6.37862 8.32039 6.72785 7.87144 6.66639 7.3791C6.60476 6.88676 6.1559 6.53664 5.66347 6.59899L5.66275 6.59908C5.17041 6.66071 4.82154 7.10966 4.883 7.602C4.93987 8.05652 5.32709 8.38903 5.77371 8.38903Z" fill="white"/>
</svg>
