<svg width="46" height="46" viewBox="0 0 46 46" fill="none" xmlns="http://www.w3.org/2000/svg">
<g clip-path="url(#clip0_120_696)">
<path d="M35.6175 44.3834L30.7924 39.5576C30.6239 39.3892 30.3954 39.2945 30.1571 39.2945C30.1567 39.2945 30.1562 39.2945 30.1559 39.2945L27.567 39.2982C27.5613 39.2982 27.5557 39.2982 27.55 39.2982C26.121 39.2982 24.6894 39.0354 23.3496 38.534L24.9031 37.4922C25.539 37.0658 25.9665 36.4165 26.1071 35.6639C26.2477 34.9112 26.0832 34.1513 25.6441 33.524C25.098 32.7442 24.2186 32.3208 23.3232 32.3208C23.3087 32.3208 23.2941 32.3209 23.2795 32.3212L26.8579 28.7428C27.9435 27.6571 27.9435 25.8906 26.8579 24.8049C26.5937 24.5408 26.2858 24.3364 25.9505 24.1982C26.199 23.7758 26.3319 23.2932 26.3319 22.7902C26.3319 22.0465 26.0423 21.3471 25.5164 20.8212C24.9905 20.2952 24.2912 20.0056 23.5474 20.0056C23.0444 20.0056 22.5619 20.1385 22.1394 20.3871C22.0012 20.0518 21.7968 19.7439 21.5327 19.4796C21.0067 18.9537 20.3075 18.664 19.5636 18.664C18.8198 18.664 18.1206 18.9537 17.5946 19.4796L16.3098 20.7645C16.1731 20.4634 15.9826 20.186 15.7418 19.9451C15.2158 19.4192 14.5166 19.1296 13.7728 19.1296C13.0289 19.1296 12.3297 19.4193 11.8037 19.9451L11.2342 20.5146L8.91886 18.2123C8.24629 17.5397 8.24629 16.4453 8.91886 15.7728C9.54893 15.1427 10.5491 15.103 11.2259 15.6533L13.4682 17.8957C13.6437 18.0712 13.8736 18.1588 14.1035 18.1588C14.3334 18.1588 14.5634 18.0711 14.7388 17.8957C15.0896 17.5448 15.0896 16.976 14.7388 16.6251L10.8704 12.7568C10.1979 12.0841 10.1979 10.9898 10.8704 10.3172C11.543 9.64453 12.6375 9.64462 13.3101 10.3172L20.0876 17.1078C20.2631 17.2832 20.493 17.3709 20.7229 17.3709C20.9528 17.3709 21.1828 17.2831 21.3582 17.1078C21.709 16.7569 21.709 16.188 21.3582 15.8372L16.2066 10.6725C15.6563 9.99564 15.6961 8.99559 16.3261 8.3656C16.9988 7.69303 18.0933 7.69303 18.7657 8.3656L20.6532 10.2531C21.0041 10.6041 21.573 10.6041 21.9237 10.2531C22.2746 9.90229 22.2747 9.3334 21.9237 8.98256L20.0363 7.09503C18.663 5.72186 16.4287 5.72195 15.0555 7.09503C14.6017 7.54883 14.299 8.09688 14.1451 8.67664C13.5502 8.24737 12.8383 8.01512 12.0903 8.01512C11.1495 8.01512 10.2651 8.3815 9.59987 9.04662C8.3638 10.2827 8.24108 12.2162 9.23026 13.5917C8.6504 13.7455 8.10218 14.0484 7.64829 14.5023C6.35238 15.7983 6.28015 17.8608 7.43024 19.2431C6.86323 19.3997 6.32785 19.6995 5.88304 20.1443C4.50995 21.5175 4.50995 23.7518 5.88304 25.1251L6.28401 25.526C4.7679 27.3464 3.94394 29.6178 3.94735 32.0163L3.94951 33.5045L0.26313 37.1912C-0.08771 37.542 -0.08771 38.1109 0.26313 38.4618C0.438595 38.6372 0.668505 38.725 0.898415 38.725C1.12833 38.725 1.35833 38.6372 1.5337 38.4618L5.48377 34.5117C5.65259 34.3428 5.74728 34.1137 5.74692 33.875L5.74423 32.0139C5.74099 29.7809 6.60897 27.6814 8.18798 26.1024L12.6466 21.6437L12.6467 21.6436L13.0743 21.216C13.2608 21.0293 13.5088 20.9267 13.7727 20.9267C14.0365 20.9267 14.2845 21.0293 14.471 21.216C14.6576 21.4025 14.7603 21.6504 14.7603 21.9143C14.7603 22.1408 14.6841 22.3554 14.5445 22.5297L13.3569 23.7174C13.006 24.0682 13.006 24.6371 13.3569 24.988C13.3577 24.9889 13.3586 24.9895 13.3593 24.9903C13.3601 24.9911 13.3607 24.9919 13.3615 24.9927C13.537 25.1681 13.7669 25.2559 13.9968 25.2559C14.2267 25.2559 14.4567 25.1681 14.6321 24.9927L18.865 20.7504C19.0515 20.5638 19.2995 20.4611 19.5634 20.4611C19.8272 20.4611 20.0752 20.5639 20.2617 20.7504C20.6202 21.1089 20.6445 21.6765 20.3355 22.0639L16.0241 26.3848C15.6732 26.7356 15.6732 27.3045 16.0241 27.6554C16.1995 27.8308 16.4294 27.9186 16.6593 27.9186C16.8893 27.9186 17.1193 27.8308 17.2946 27.6554L22.8487 22.0919C23.0352 21.9053 23.2832 21.8026 23.547 21.8026C23.8109 21.8026 24.0589 21.9054 24.2454 22.0919C24.6305 22.477 24.6305 23.1036 24.2454 23.4886L18.682 29.0426C18.3312 29.3934 18.3311 29.9623 18.682 30.3133C19.0329 30.664 19.6018 30.6641 19.9526 30.3133L24.2735 26.0018C24.6608 25.6927 25.2285 25.717 25.5869 26.0757C25.972 26.4607 25.972 27.0873 25.5869 27.4723L19.5211 33.5383C19.0938 33.9655 19.0543 34.6206 19.4273 35.0961C19.8001 35.5715 20.4459 35.6893 20.9627 35.376L22.7952 34.2651C23.2572 33.9849 23.8619 34.1122 24.1717 34.5549C24.3317 34.7833 24.3916 35.0601 24.3404 35.3343C24.2891 35.6083 24.1334 35.8448 23.9019 36L19.6623 38.843C18.2827 39.7681 16.6762 40.2568 15.0154 40.2568C15.0115 40.2568 15.0075 40.2568 15.0036 40.2568L12.124 40.2527C12.1236 40.2527 12.1232 40.2527 12.1228 40.2527C11.8845 40.2527 11.6559 40.3474 11.4875 40.5158L7.53733 44.466C7.18649 44.8168 7.18649 45.3857 7.53733 45.7366C7.71279 45.912 7.9427 45.9998 8.17261 45.9998C8.40252 45.9998 8.63253 45.912 8.8079 45.7366L12.4944 42.0502L15.0011 42.0538C15.0059 42.0538 15.0104 42.0538 15.0153 42.0538C17.0336 42.0538 18.9865 41.4597 20.663 40.3355L21.5708 39.7267C23.426 40.6219 25.4901 41.0953 27.5496 41.0953C27.556 41.0953 27.5627 41.0953 27.5692 41.0953L29.7851 41.0922L34.347 45.6541C34.5224 45.8295 34.7524 45.9172 34.9823 45.9172C35.2122 45.9172 35.4422 45.8295 35.6175 45.6541C35.9684 45.3032 35.9684 44.7344 35.6175 44.3834ZM9.37562 22.3736L9.37544 22.3738L7.52412 24.2251L7.1537 23.8547C6.48113 23.182 6.48113 22.0876 7.1537 21.415C7.78377 20.785 8.78391 20.7453 9.4607 21.2956L9.95718 21.792L9.37562 22.3736Z" fill="white"/>
<path d="M45.7368 34.2647C45.5696 34.0967 45.3379 34.0015 45.1016 34.0015C44.8653 34.0015 44.6335 34.0967 44.4664 34.2647C44.2993 34.4318 44.2031 34.6627 44.2031 34.8999C44.2031 35.1362 44.2993 35.368 44.4664 35.535C44.6335 35.7021 44.8653 35.7983 45.1016 35.7983C45.3379 35.7983 45.5696 35.7022 45.7368 35.535C45.9039 35.367 46 35.1362 46 34.8999C46 34.6626 45.9039 34.4318 45.7368 34.2647Z" fill="white"/>
<path d="M43.3209 31.8486L41.1749 29.7026L41.1801 26.07C41.184 23.3255 40.3781 20.67 38.8495 18.3905L34.8951 12.4933C34.3549 11.6878 33.5324 11.1461 32.5791 10.968C31.6257 10.79 30.6632 10.9983 29.8688 11.5546C28.5671 12.4661 28.0495 14.1106 28.5098 15.5684L26.1617 13.2202C25.8109 12.8695 25.242 12.8695 24.8911 13.2202C24.5402 13.5711 24.5402 14.14 24.8911 14.4909L29.9352 19.5351C30.4019 20.0017 31.1177 20.0449 31.637 19.6375C32.1563 19.2302 32.2849 18.5248 31.9427 17.9603L30.3974 15.4113C29.9122 14.6109 30.1327 13.5634 30.8994 13.0266C31.295 12.7496 31.7747 12.6459 32.2492 12.7345C32.724 12.8232 33.1336 13.093 33.4026 13.4942L37.3571 19.3913C38.6859 21.3731 39.3865 23.6816 39.3831 26.0675L39.3775 30.0729C39.3771 30.3117 39.4718 30.5408 39.6406 30.7096L42.0503 33.1193C42.2258 33.2947 42.4557 33.3824 42.6856 33.3824C42.9155 33.3824 43.1455 33.2947 43.3209 33.1193C43.6717 32.7684 43.6717 32.1995 43.3209 31.8486Z" fill="white"/>
<path d="M24.0493 11.1085C23.883 10.9413 23.6512 10.8452 23.415 10.8452C23.1778 10.8452 22.9469 10.9413 22.7789 11.1085C22.6118 11.2756 22.5156 11.5074 22.5156 11.7437C22.5156 11.9808 22.6118 12.2117 22.7789 12.3788C22.9469 12.546 23.1778 12.6421 23.415 12.6421C23.6512 12.6421 23.8821 12.546 24.0493 12.3788C24.2173 12.2117 24.3134 11.9799 24.3134 11.7437C24.3134 11.5074 24.2173 11.2756 24.0493 11.1085Z" fill="white"/>
<path d="M32.3874 25.0506C32.7383 24.6997 32.7383 24.1308 32.3874 23.7799C32.0366 23.4292 31.4677 23.4292 31.1168 23.7799L30.7249 24.1718C29.0471 25.8496 29.0471 28.5796 30.7249 30.2574C30.9003 30.4327 31.1302 30.5205 31.3601 30.5205C31.5901 30.5205 31.8201 30.4327 31.9954 30.2574C32.3463 29.9065 32.3464 29.3376 31.9954 28.9867C31.0183 28.0096 31.0183 26.4195 31.9954 25.4424L32.3874 25.0506Z" fill="white"/>
<path d="M42.8823 4.85181C42.3111 4.85181 41.7528 5.01388 41.2701 5.31028C40.7874 5.01388 40.2291 4.85181 39.658 4.85181C37.9389 4.85181 36.5403 6.27601 36.5403 8.02644C36.5403 9.01849 37.2536 10.2099 38.7209 11.669C39.7088 12.6513 40.6833 13.399 40.7244 13.4304C40.8854 13.5535 41.0778 13.6151 41.2701 13.6151C41.4625 13.6151 41.6547 13.5535 41.8158 13.4304C41.8569 13.399 42.8314 12.6512 43.8193 11.669C45.2867 10.21 45.9999 9.01849 45.9999 8.02644C45.9999 6.27592 44.6013 4.85181 42.8823 4.85181ZM41.2698 11.5673C39.7684 10.3202 38.3372 8.7291 38.3372 8.02644C38.3372 7.26672 38.9297 6.64868 39.658 6.64868C40.0202 6.64868 40.3582 6.79881 40.6098 7.07158C40.7799 7.25594 41.0193 7.36078 41.2701 7.36078C41.521 7.36078 41.7604 7.25594 41.9305 7.07158C42.182 6.7989 42.52 6.64868 42.8823 6.64868C43.6105 6.64868 44.2031 7.26672 44.2031 8.02644C44.2031 8.72731 42.7714 10.3189 41.2698 11.5673Z" fill="white"/>
<path d="M6.34198 4.25078e-09C5.77084 4.25078e-09 5.21256 0.162078 4.72982 0.458473C4.24709 0.162078 3.68881 4.25078e-09 3.11767 4.25078e-09C1.3986 -8.98395e-05 0 1.42402 0 3.17454C0 4.16659 0.71327 5.35801 2.1806 6.81707C3.16852 7.79943 4.14314 8.5472 4.18411 8.57855C4.34511 8.70173 4.53747 8.76327 4.72982 8.76327C4.92218 8.76327 5.11445 8.70173 5.27554 8.57855C5.31659 8.5472 6.29113 7.79943 7.27905 6.81716C8.74638 5.3581 9.45965 4.16668 9.45965 3.17463C9.45965 1.42411 8.06105 4.25078e-09 6.34198 4.25078e-09ZM4.72956 6.71537C3.228 5.46834 1.79688 3.8773 1.79688 3.17454C1.79688 2.41482 2.38939 1.79679 3.11767 1.79679C3.47992 1.79679 3.81791 1.94691 4.06947 2.21968C4.23964 2.40404 4.47898 2.50889 4.72982 2.50889C4.98067 2.50889 5.2201 2.40404 5.39018 2.21968C5.64174 1.947 5.97973 1.79679 6.34198 1.79679C7.07025 1.79679 7.66277 2.41482 7.66277 3.17454C7.66277 3.87532 6.23111 5.46699 4.72956 6.71537Z" fill="white"/>
</g>
<defs>
<clipPath id="clip0_120_696">
<rect width="46" height="46" fill="white"/>
</clipPath>
</defs>
</svg>
