<svg width="46" height="46" viewBox="0 0 46 46" fill="none" xmlns="http://www.w3.org/2000/svg">
<g clip-path="url(#clip0_120_745)">
<path d="M17.5622 31.5748L14.4346 30.7762L12.7087 28.0484C12.544 27.7881 12.2574 27.6304 11.9494 27.6304C11.6414 27.6304 11.3548 27.7881 11.1901 28.0484L9.46425 30.7762L6.33661 31.5748C6.03814 31.651 5.79952 31.8748 5.70437 32.1677C5.60923 32.4606 5.67068 32.7818 5.86735 33.0189L7.92828 35.5034L7.72119 38.7247C7.70142 39.0321 7.8405 39.3282 8.08973 39.5092C8.33886 39.6903 8.66347 39.7311 8.94971 39.6173L11.9493 38.4249L14.949 39.6173C15.0562 39.6599 15.1688 39.6808 15.2808 39.6808C15.4678 39.6808 15.6531 39.6225 15.809 39.5092C16.0581 39.3282 16.1972 39.0322 16.1775 38.7247L15.9704 35.5034L18.0314 33.0189C18.2281 32.7818 18.2895 32.4606 18.1944 32.1677C18.0992 31.8748 17.8606 31.651 17.5622 31.5748ZM14.3595 34.6311C14.213 34.8076 14.1396 35.0334 14.1544 35.2623L14.2933 37.423L12.2812 36.6232C12.1747 36.5809 12.062 36.5597 11.9493 36.5597C11.8367 36.5597 11.724 36.5809 11.6174 36.6232L9.60539 37.423L9.74429 35.2623C9.75902 35.0334 9.68562 34.8075 9.53918 34.6311L8.15684 32.9647L10.2547 32.4291C10.477 32.3723 10.669 32.2327 10.7917 32.0389L11.9493 30.2092L13.107 32.0388C13.2296 32.2326 13.4217 32.3722 13.644 32.429L15.7418 32.9646L14.3595 34.6311Z" fill="white"/>
<path d="M45.1016 22.1016H34.9492V0.898438C34.9492 0.402231 34.547 0 34.0508 0H27.043C26.5468 0 26.1445 0.402231 26.1445 0.898438C26.1445 1.39464 26.5468 1.79688 27.043 1.79688H33.1523V22.1016H12.8477V1.79688H18.957C19.4532 1.79688 19.8555 1.39464 19.8555 0.898438C19.8555 0.402231 19.4532 0 18.957 0H11.9492C11.453 0 11.0508 0.402231 11.0508 0.898438V22.1016H0.898438C0.402231 22.1016 0 22.5038 0 23V45.1016C0 45.5978 0.402231 46 0.898438 46H23H45.1016C45.5978 46 46 45.5978 46 45.1016V23C46 22.5038 45.5978 22.1016 45.1016 22.1016ZM1.79688 44.2031V23.8984H22.1016V44.2031H1.79688ZM44.2031 44.2031H23.8984V23.8984H44.2031V44.2031Z" fill="white"/>
<path d="M27.7617 34.0508C27.7617 37.5186 30.583 40.3398 34.0508 40.3398C37.5186 40.3398 40.3398 37.5186 40.3398 34.0508C40.3398 30.583 37.5186 27.7617 34.0508 27.7617C30.583 27.7617 27.7617 30.583 27.7617 34.0508ZM38.543 34.0508C38.543 36.5278 36.5278 38.543 34.0508 38.543C31.5738 38.543 29.5586 36.5278 29.5586 34.0508C29.5586 31.5738 31.5738 29.5586 34.0508 29.5586C36.5278 29.5586 38.543 31.5738 38.543 34.0508Z" fill="white"/>
<path d="M23 1.79688C23.4962 1.79688 23.8984 1.39463 23.8984 0.898438C23.8984 0.402244 23.4962 0 23 0C22.5038 0 22.1016 0.402244 22.1016 0.898438C22.1016 1.39463 22.5038 1.79688 23 1.79688Z" fill="white"/>
<path d="M23 5.39404C22.679 5.39404 22.3824 5.56529 22.222 5.84326L16.8314 15.1801C16.6708 15.4581 16.6708 15.8006 16.8314 16.0785C16.9918 16.3565 17.2884 16.5278 17.6094 16.5278H28.3906C28.7117 16.5278 29.0082 16.3565 29.1687 16.0785C29.3292 15.8006 29.3292 15.4581 29.1687 15.1801L23.7781 5.84326C23.6176 5.5652 23.321 5.39404 23 5.39404ZM26.8346 14.7308H19.1655L23 8.08936L26.8346 14.7308Z" fill="white"/>
</g>
<defs>
<clipPath id="clip0_120_745">
<rect width="46" height="46" fill="white"/>
</clipPath>
</defs>
</svg>
